<svg id="图层_1" data-name="图层 1" xmlns="http://www.w3.org/2000/svg" viewBox="0 0 1059 1412"><defs><style>.cls-1{fill:#fff;}</style></defs><title>袖子</title><path class="cls-1" d="M289.85,1065.16c-16.87-6.76-65.87,1.59-65.31,10.81.12,1.93.14-1.58,0,0-1.66,18.7,1.08,37.43-.34,56.13.49,4-.84,8.81.67,12.82,2.25,3.63,6.93,5.69,10.13,5,2,.13-.68-9.24,3.62-9.81,2.44-.55,37-4.92,45.49-5l11.1-.16s2.6.08,3.93,0c.91.05,3.3,1.17,4.2,1.23a9,9,0,0,0,.17-2.83c-3.77-16.47-6.07-33.74-10.17-50.17Z"/><path class="cls-1" d="M783,1059s1.53.36-8.47-1.64-42.53,2.39-42.53,2.39l-.62,5.88-3.06,27.54-.33,2.55c-.63-.18-.22,6.11-.24,6.52-.29,9-.25,19-2.87,31,0,0,32.63-1.62,43.25-.75s15.8,2.4,15.8,2.4l11.94,2.31.77.53a1.79,1.79,0,0,0,1.11-2c-.26-11.77.55-23.5,1-35.25.49-14.22-1.21-22.75-1.21-37Z"/></svg>