<svg id="图层_1" data-name="图层 1" xmlns="http://www.w3.org/2000/svg" viewBox="0 0 1059 1412"><defs><style>.cls-1{fill:#fff;}</style></defs><title>领子-01</title><path class="cls-1" d="M513.51,374.63c-16.37-11.92-34-22.17-49-35.84-5.46-5-21-26-21-26.9-2-2.37.13-3.19,1.25-7.37,1.12-3.48,4-9.33,4.13-11.37-9.75,1.75-11.76,8.84-12.5,10.9-2.13,5.91-3.7,12-6.11,17.83-1.94,4.65-2.4,10-5.86,14a32.35,32.35,0,0,0,0,18.68c3.15,9.5,12.15,25.5,17.4,31.75s27.5,42.25,27.5,42.25.75,2.25,3.5-1.75,41-50,41-50Z"/><path class="cls-1" d="M521,376s34.25,47.5,36.25,50.5,3.46,2.63,3.46,2.63,3.54-6.88,4.79-10.38S581.75,390,586,383.5s12-18.25,15.71-27.5,0-21.33,0-21.33L596.2,324.5c-3.18-8.51-6.69-17.9-10.26-26.25-.76-1.78-5.22-6.39-8.25-6.25,3.75,14.88,2.54,21.17,1.35,23.64-.59.71-1.39,2.39-2,3.11-6.33,10.67-13.69,18-22.64,25.61-10.94,9.3-22.5,17.88-33.81,26.75-1.5,1.18-1.49,1.91.38,4.89Z"/></svg>