<svg xmlns="http://www.w3.org/2000/svg" xmlns:xlink="http://www.w3.org/1999/xlink" preserveAspectRatio="xMidYMid" width="2539" height="4547" viewBox="0 0 2539 4547">
  <defs>
    <style>
      .cls-1 {
        fill: #fff;
        fill-rule: evenodd;
      }
    </style>
  </defs>
  <path d="M1130.000,825.000 C1125.648,824.378 1121.480,823.564 1106.000,828.000 C1090.520,832.436 1095.534,821.468 1078.000,824.000 C1060.466,826.532 1072.854,831.711 1057.000,831.000 C1041.146,830.289 1000.599,829.339 978.000,845.000 C957.011,858.514 949.073,862.227 924.000,890.000 C888.731,912.406 897.967,911.843 848.000,903.000 C798.569,916.699 831.978,941.103 786.000,934.000 C733.582,936.557 694.000,965.139 647.000,975.000 C638.041,981.422 643.866,971.419 630.000,969.000 C616.134,966.581 617.601,965.480 611.000,972.000 C604.399,981.150 605.689,972.630 598.000,970.000 C589.906,967.977 577.630,976.745 571.000,983.000 C564.370,989.255 554.554,1001.263 547.000,982.000 C517.371,959.119 499.145,936.854 497.000,946.000 C479.146,960.802 462.274,969.848 455.000,1050.000 C447.726,1130.152 444.044,1177.922 444.000,1182.000 C443.956,1186.078 429.578,1167.341 422.000,1161.000 C418.192,1156.858 421.464,1201.512 417.000,1226.000 C412.536,1250.488 405.860,1326.397 420.000,1349.000 C427.356,1374.396 433.495,1380.026 443.000,1382.000 C452.505,1383.974 490.226,1376.082 537.000,1392.000 C558.237,1397.542 599.637,1398.922 635.000,1412.000 C670.363,1425.078 917.637,1540.809 933.000,1540.000 C952.747,1558.279 941.631,1560.807 969.000,1538.000 C1023.053,1496.021 1125.940,1405.280 1185.000,1401.000 C1207.238,1395.157 1461.796,1516.428 1474.000,1751.000 C1494.897,1816.939 1523.222,1809.625 1540.000,1801.000 C1556.778,1792.375 1638.577,1741.879 1662.000,1758.000 C1716.715,1774.990 1726.001,1764.664 1747.000,1772.000 C1763.653,1772.383 1813.863,1780.763 1837.000,1797.000 C1860.137,1820.191 1932.341,1840.340 1951.000,1842.000 C1969.659,1843.660 2001.318,1865.670 2012.000,1889.000 C2040.935,1916.677 2037.781,1924.193 2064.000,1919.000 C2081.360,1918.237 2073.246,1911.119 2094.000,1937.000 C2114.754,1962.881 2118.711,1977.594 2129.000,1967.000 C2139.289,1956.406 2220.543,1906.934 2222.000,1901.000 C2223.457,1895.066 2110.934,1873.268 2120.000,1846.000 C2129.066,1818.732 2219.104,1703.821 2239.000,1741.000 C2263.325,1748.872 2197.702,1699.149 2184.000,1693.000 C2172.973,1686.533 2171.593,1681.330 2137.000,1677.000 C2114.573,1659.151 2109.035,1589.554 2103.000,1577.000 C2096.965,1564.446 2033.883,1309.462 2031.000,1295.000 C2028.782,1283.876 1981.436,1127.281 1937.416,1044.115 C1913.348,1024.050 1911.300,1000.820 1900.000,995.000 C1868.956,970.324 1810.700,925.460 1782.000,924.000 C1757.714,915.184 1743.517,909.230 1726.000,896.000 C1720.252,890.494 1714.575,898.816 1697.000,909.000 C1679.425,919.184 1726.461,930.356 1748.000,929.000 C1770.275,930.586 1802.897,929.275 1759.000,936.000 C1676.483,937.575 1681.931,921.299 1677.000,923.000 C1672.069,924.701 1622.137,945.390 1614.000,947.000 C1609.541,954.127 1608.632,966.322 1609.000,970.000 C1609.368,973.678 1608.667,986.069 1630.000,996.000 C1637.356,1004.460 1655.587,1010.998 1687.000,1021.000 C1642.277,1015.921 1628.126,1008.563 1609.000,999.000 C1596.862,991.644 1588.780,978.367 1584.000,955.000 C1514.877,963.805 1377.988,960.710 1336.000,942.000 C1309.425,961.143 1254.901,1004.354 1201.000,991.000 C1182.303,1000.394 1183.222,1004.295 1179.000,1012.000 C1169.494,1031.828 1167.947,1040.638 1155.000,1043.000 C1162.569,1020.806 1159.525,1030.994 1164.000,1013.000 C1168.475,995.006 1165.138,1006.180 1148.000,1018.000 C1115.941,1033.240 1094.593,1057.416 1132.000,1013.000 C1160.703,975.423 1178.294,982.377 1181.000,966.000 C1183.706,949.623 1142.152,961.604 1131.000,970.000 C1119.848,978.396 1097.912,981.498 1099.000,971.000 C1100.088,960.502 1094.563,964.765 1088.000,976.000 C1081.437,987.235 1042.750,1006.700 1068.000,985.000 C1095.736,947.447 1097.953,951.379 1097.000,939.000 C1096.047,926.621 1085.789,923.220 1099.000,910.000 C1112.211,896.780 1129.097,863.863 1132.000,841.000 C1134.903,818.137 1134.352,825.622 1130.000,825.000 Z" class="cls-1"/>
</svg>
