<svg xmlns="http://www.w3.org/2000/svg" xmlns:xlink="http://www.w3.org/1999/xlink" preserveAspectRatio="xMidYMid" width="2539" height="4547" viewBox="0 0 2539 4547">
  <defs>
    <style>
      .cls-1 {
        fill: #fff;
        fill-rule: evenodd;
      }
    </style>
  </defs>
  <path d="M1135.000,825.000 C1135.000,825.000 1111.654,828.379 1085.000,824.000 C1056.978,820.990 1062.003,825.578 1049.000,829.000 C1035.997,832.422 1004.793,829.787 987.000,838.000 C975.366,846.212 966.058,849.041 933.000,881.000 C901.311,918.434 872.176,905.885 858.000,906.000 C843.824,906.115 838.294,898.397 813.000,931.000 C802.762,950.599 804.324,915.972 731.000,947.000 C673.701,962.945 635.214,987.589 636.000,971.000 C632.029,960.355 607.247,966.670 610.000,972.000 C612.753,977.330 585.669,959.149 557.000,994.000 C537.843,973.763 548.164,986.819 500.000,947.000 C484.733,933.338 461.298,1022.280 453.000,1065.000 C448.189,1110.045 445.907,1159.548 445.000,1173.000 C444.092,1186.452 447.503,1190.447 424.000,1162.000 C417.935,1145.179 405.021,1323.806 417.000,1340.000 C422.004,1348.637 421.100,1384.622 448.000,1380.000 C474.900,1375.377 496.766,1379.557 521.000,1392.000 C544.071,1395.142 543.989,1388.000 576.000,1400.000 C599.874,1406.187 634.935,1405.260 661.000,1422.000 C680.252,1428.716 668.350,1409.297 739.000,1452.000 C809.650,1494.703 814.113,1484.134 852.000,1501.000 C889.887,1517.865 932.855,1536.923 945.000,1549.000 C957.145,1561.077 981.150,1607.543 927.000,1664.000 C872.850,1692.166 737.675,1864.546 713.000,1922.000 C676.454,1981.103 595.122,2165.880 554.000,2466.000 C502.619,2777.664 454.680,3067.215 437.000,3194.000 C423.857,3341.530 394.354,3406.798 412.000,3403.000 C438.072,3397.257 410.058,3415.033 422.000,3424.000 C433.942,3432.967 538.470,3461.895 570.000,3468.000 C605.419,3479.939 614.908,3483.743 651.000,3488.000 C687.092,3492.257 678.188,3494.847 670.000,3513.000 C661.812,3531.153 646.276,3548.512 657.000,3564.000 C667.724,3579.487 676.267,3600.661 706.000,3613.000 C735.733,3625.338 767.382,3626.175 775.000,3634.000 C786.224,3637.703 816.404,3630.691 833.000,3636.000 C849.596,3641.309 948.408,3649.688 989.000,3653.000 C1031.873,3665.439 1120.035,3646.982 1125.000,3668.000 C1129.965,3689.018 1294.850,3711.376 1347.000,3704.000 C1479.753,3715.640 1527.246,3684.487 1531.000,3697.000 C1540.643,3701.823 1550.484,3697.006 1572.000,3694.000 C1593.516,3690.994 1631.776,3697.662 1652.000,3694.000 C1672.224,3690.338 1696.825,3696.708 1749.000,3679.000 C1838.364,3665.884 1870.251,3653.532 1869.000,3660.000 C1863.158,3681.495 1996.839,3655.007 2049.000,3624.000 C2062.433,3606.216 2058.770,3604.223 2069.000,3615.000 C2079.229,3625.777 2183.066,3569.768 2200.000,3565.000 C2216.934,3560.232 2220.319,3556.926 2214.000,3542.000 C2207.681,3527.074 2140.284,3299.389 2119.000,3285.000 C2106.635,3254.255 2000.317,3057.941 1956.000,2975.000 C1919.115,2930.718 1695.821,2359.161 1680.000,2339.000 C1666.413,2312.136 1460.132,1839.004 1479.000,1815.000 C1481.736,1798.865 1491.246,1798.217 1529.000,1804.000 C1566.754,1809.783 1597.531,1765.777 1639.000,1764.000 C1649.623,1761.161 1665.514,1754.121 1678.000,1761.000 C1700.479,1770.633 1740.833,1773.975 1774.000,1777.000 C1807.167,1780.025 1807.338,1781.982 1833.000,1791.000 C1858.662,1800.018 1870.694,1835.098 1958.000,1842.000 C1967.003,1842.793 2008.354,1876.784 2019.000,1898.000 C2035.199,1913.106 2038.485,1924.338 2058.000,1918.000 C2081.402,1917.215 2077.382,1918.235 2088.000,1928.000 C2111.946,1949.984 2115.619,1970.799 2126.000,1969.000 C2136.381,1967.201 2209.437,1908.445 2224.000,1902.000 C2238.563,1895.555 2150.835,1881.544 2135.000,1868.000 C2119.165,1854.456 2104.971,1862.401 2144.000,1804.000 C2183.029,1745.599 2227.332,1711.854 2241.000,1744.000 C2261.887,1747.821 2161.839,1668.272 2139.000,1674.000 C2125.047,1675.840 2107.712,1596.115 2099.000,1562.000 C2090.288,1527.885 1991.867,1134.985 1956.000,1087.000 C1938.666,1035.645 1910.733,1022.508 1907.000,1001.000 C1903.829,987.916 1805.448,927.726 1785.000,923.000 C1764.552,918.274 1734.869,900.931 1725.000,895.000 C1715.131,889.069 1704.525,902.781 1700.000,908.000 C1695.475,913.219 1705.597,922.493 1723.000,926.000 C1740.403,929.506 1757.764,932.493 1762.000,931.000 C1766.236,929.506 1761.420,936.384 1754.000,938.000 C1707.268,934.000 1678.113,926.041 1675.000,923.000 C1649.985,933.438 1621.820,947.083 1614.000,947.000 C1606.180,946.917 1603.837,991.166 1630.000,996.000 C1656.724,1008.697 1670.141,1018.317 1680.000,1018.000 C1689.859,1017.683 1635.614,1014.398 1615.000,1002.000 C1601.687,995.218 1575.613,967.014 1585.000,955.000 C1564.621,962.643 1366.331,955.370 1334.000,941.000 C1311.949,973.204 1232.586,996.863 1194.000,995.000 C1179.554,1003.389 1170.726,1040.688 1150.000,1043.000 C1168.956,1015.547 1160.020,1018.926 1164.000,1010.000 C1167.980,1001.074 1163.986,1013.807 1143.000,1021.000 C1122.014,1028.193 1101.155,1052.296 1143.000,1008.000 C1184.845,963.703 1179.124,976.218 1180.000,965.000 C1180.876,953.782 1182.882,954.974 1146.000,960.000 C1140.202,965.687 1133.213,969.729 1121.000,973.000 C1106.619,979.089 1095.166,980.588 1095.000,973.000 C1094.834,965.412 1075.630,1003.625 1061.000,992.000 C1073.692,988.506 1085.118,973.634 1089.000,957.000 C1091.256,951.100 1101.865,948.416 1099.000,940.000 C1096.135,931.583 1085.747,933.664 1102.000,904.000 C1118.253,874.335 1132.882,852.359 1135.000,837.000 C1137.118,821.641 1136.626,824.349 1135.000,825.000 Z" class="cls-1"/>
</svg>
