<svg id="图层_1" data-name="图层 1" xmlns="http://www.w3.org/2000/svg" viewBox="0 0 1059 1412"><defs><style>.cls-1{fill:none;}.cls-2{fill:#fff;}</style></defs><title>大身-01</title><path class="cls-1" d="M300,984.67c1.67-6.67,10.67-33,10.67-36.33s3-17.33,3-17.33S319,896,320,888s10.67-38.33,10.67-38.33S332,811,332.33,807.33,339,766.67,339,766.67s-2.67-18.67-4-23-4.33-46.33-4-47.33-3.33-52.67-3.33-52.67-2.67-61.67-4-74.33-6-45.67-7.67-53a26.49,26.49,0,0,1,0-12.67S313,493,311.67,487s-6.33-28.33-6.33-28.33S288.67,435,281,429.33c-4.43-3.28-6.86-11.12-8.12-17.15a7.73,7.73,0,0,0-.41.81,12.82,12.82,0,0,0-.91,3.85l-.9,1.88c-6.78,11-9.35,23.38-11.1,36-.54,1.19-5.82,27.26-6.93,39.27-1.25,13.47-2.49,26.95-4.15,40.37-1.87,15.08-3.33,30.17-3.8,45.36,0,1.32-1,5.65-1,6.66,0,8.44-1.63,16.81-1.08,25.28-2.29,6-.85,12.33-1.67,18.52-2.59,19.44-4.13,39-6.08,58.53-1,4.56-1,9.22-1.39,13.83-1.1,11.85-2.44,23.67-3.81,35.49-1.43,12.31-3,24.61-4.51,36.9q-2.16,17.21-4.43,34.41-2.45,18.67-5,37.34c-4.22,25.54-3.23,51.42-5,77.12q0,.92,0,1.85t0,2.11c0,5,.23,10-.11,15-1.13,16.69,4.2,33,3.12,49.63-.31,4.83.89,9.54,2,14.22a50.66,50.66,0,0,0,2.91,19.14l3,18a27.64,27.64,0,0,1-.36,3.46c-1.85,8-3,16,1.8,23.58a8.18,8.18,0,0,1,1,4.81s1.21-5.56,16.21-8.56,32.84-6.32,42.34-4.07c7,1.65,6.91,1.82,6.91,1.82s-.5-8,.75-11.75a53.85,53.85,0,0,1,2.5-6.27s.58-17.4.58-24.06S298.33,991.33,300,984.67Z"/><path class="cls-2" d="M729.5,1018.33s-3.83-27.67-4.62-36.33-2.54-14.67-3.54-20-4.67-28-6.67-35.67S712.33,902,711.33,892s-7-32.33-8.67-37.67-4-24.33-4-24.33-.33-23-2-30S695,776.33,695,776.33l2-30,4-42,3.67-39,2.67-37,3.33-41s.33-26.33,2-31,6.33-21,8.67-26.67,0-8.33,0-10.67,7-27,7-27a76.91,76.91,0,0,0,0-9c-.33-2.33,4-34,4-34,9.1-5.26,18.81-25.1,25-39.9-.71-2.07-2.38-3.46-3.93-4.85a209.13,209.13,0,0,0-24.77-19.62c-.15-1.48-1-2-2.39-1.69l-1.6-.37c-.24-1.22-.53-2.33-2-1a7.47,7.47,0,0,1-4.09-1.77c.07-2-1.46-2.53-2.87-2.93-8-2.26-15.67-5.16-23.4-8.09q-25.77-9.76-51.75-18.95c-13.13-4.64-26-9.91-38.87-15.2a65.62,65.62,0,0,1-5.08-10.17c-3.18-8.51-6.69-17.9-10.26-26.25-.76-1.78-5.22-6.39-8.25-6.25,3.75,14.88,2.54,21.17,1.35,23.64-.59.71-1.39,2.39-2,3.11-6.33,10.67-13.69,18-22.64,25.61-10.94,9.3-22.5,17.88-33.81,26.75-1.5,1.18-.35,2.76-.05,4.89.07-1.51-5.5-.24-7.06-1.37-16.37-11.92-34-22.17-49-35.84-5.46-5-21-26-21-26.9-2-2.37.13-3.19,1.25-7.37,1.12-3.48,4-9.33,4.13-11.37-9.75,1.75-11.76,8.84-12.5,10.9-2.13,5.91-3.7,12-6.11,17.83-1.94,4.65-2.4,10-5.86,14-8.05,3.47-16.12,6.89-24.15,10.4-28.69,12.55-58.55,22.1-87.27,34.6C301.37,386,290,392,281.2,401.76c-2.36,2.61-6.06,3.89-6.08,8a10.31,10.31,0,0,0-2.24,2.42c1.26,6,3.68,13.88,8.12,17.15,7.67,5.67,24.33,29.33,24.33,29.33s5,22.33,6.33,28.33S316,503.67,316,503.67a26.49,26.49,0,0,0,0,12.67c1.67,7.33,6.33,40.33,7.67,53s4,74.33,4,74.33,3.67,51.67,3.33,52.67,2.67,43,4,47.33,4,23,4,23-6.33,37-6.67,40.67-1.67,42.33-1.67,42.33S321,880,320,888s-6.33,43-6.33,43-3,14-3,17.33-9,29.67-10.67,36.33-6.67,31.33-6.67,38-.58,24.06-.58,24.06c2.83-1.37,2.93,1.2,3.62,2.64,5.3,11.07,10.52,22.18,15.77,33.27.72,1.53,18.5,32,38,41.75,9.2,4.63,19.38,6.53,29.63,8,15.88,2.28,32.11,1.05,48,1.75,13.38.59,26.5-.37,40.22-.47,10.78-.08,21.52-1.32,32.28-2,1.89-.12,3.6-.66,4.61-2.47l1.41.29c22.09,2,44.22,3.3,66.38,4.21,1,.44,51.16,4.32,65.6,2.09,9.63-1.49,18.58-1.35,28.23-2.66,22.76-3.08,36.45-19,48.56-36.43,3.76-5.42,6.32-11.66,9.45-17.52.52-1,5.37-14.15,6.88-13.52l.63-5.88.67-.11-3.17-22.31Z"/><path class="cls-1" d="M814.53,878.11c-.78-8.74-1.35-17.49-2.09-26.23-1.09-12.85-2.56-25.66-3.76-38.5-.81-8.73-1.36-17.49-2.16-26.23-1.23-13.5-2.58-27-3.88-40.49-.74-7.74-1.44-15.48-2.25-23.22-1.2-11.5-2.55-23-3.73-34.5-1.13-11-2-22.08-3.21-33.09-1.46-13.14-3.35-26.23-4.74-39.37-1.27-12-1.93-24.08-3.18-36.09-2-19.62-4-39.23-3.93-59,0-1.91.73-4-.94-5.7,0-9.91,1-20-1.27-29.67-3.81-16.19-5.61-32.76-9.69-48.88-.31-1.21-2-5.1-2.1-6.39a3.06,3.06,0,0,0-.51.08,3.06,3.06,0,0,1,.51-.08c-2.63-7.37-6.56-14.13-10-21.1,0-.2-.12-.39-.18-.58-6.23,14.81-15.94,34.65-25,39.9,0,0-4.33,31.67-4,34a76.91,76.91,0,0,1,0,9s-7,24.67-7,27,2.33,5,0,10.67-7,22-8.67,26.67-2,31-2,31l-3.33,41-2.67,37-3.67,39-4,42-2,30S695,793,696.67,800s2,30,2,30,2.33,19,4,24.33S710.33,882,711.33,892s1.33,26.67,3.33,34.33,5.67,30.33,6.67,35.67,2.75,11.33,3.54,20,4.63,36.33,4.63,36.33v19l3.17,22.31c4.45-.7,30.57-4.59,46.08-1.39,17,3.5,18.75,5.25,18.75,5.25l1.09-6.71a164.83,164.83,0,0,0,10-41,160.94,160.94,0,0,0,2.21-17.21c.47-8.75,1.13-17.53,2.14-26.22,1.63-14,2.45-28,3.55-42C817.85,912.91,816.09,895.47,814.53,878.11Z"/></svg>