<svg id="图层_1" data-name="图层 1" xmlns="http://www.w3.org/2000/svg" viewBox="0 0 1059 1412"><defs><style>.cls-1{fill:#fff;}</style></defs><title>袖子-01</title><path class="cls-1" d="M300,984.67c1.67-6.67,10.67-33,10.67-36.33s3-17.33,3-17.33S319,896,320,888s10.67-38.33,10.67-38.33S332,811,332.33,807.33,339,766.67,339,766.67s-2.67-18.67-4-23-4.33-46.33-4-47.33-3.33-52.67-3.33-52.67-2.67-61.67-4-74.33-6-45.67-7.67-53a26.49,26.49,0,0,1,0-12.67S313,493,311.67,487s-6.33-28.33-6.33-28.33S288.67,435,281,429.33c-4.43-3.28-6.86-11.12-8.12-17.15a7.73,7.73,0,0,0-.41.81,12.82,12.82,0,0,0-.91,3.85l-.9,1.88c-6.78,11-9.35,23.38-11.1,36-.54,1.19-5.82,27.26-6.93,39.27-1.25,13.47-2.49,26.95-4.15,40.37-1.87,15.08-3.33,30.17-3.8,45.36,0,1.32-1,5.65-1,6.66,0,8.44-1.63,16.81-1.08,25.28-2.29,6-.85,12.33-1.67,18.52-2.59,19.44-4.13,39-6.08,58.53-1,4.56-1,9.22-1.39,13.83-1.1,11.85-2.44,23.67-3.81,35.49-1.43,12.31-3,24.61-4.51,36.9q-2.16,17.21-4.43,34.41-2.45,18.67-5,37.34c-4.22,25.54-3.23,51.42-5,77.12q0,.92,0,1.85t0,2.11c0,5,.23,10-.11,15-1.13,16.69,4.2,33,3.12,49.63-.31,4.83.89,9.54,2,14.22a50.66,50.66,0,0,0,2.91,19.14l3,18a27.64,27.64,0,0,1-.36,3.46c-1.85,8-3,16,1.8,23.58a8.18,8.18,0,0,1,1,4.81s1.21-5.56,16.21-8.56,32.84-6.32,42.34-4.07c7,1.65,6.91,1.82,6.91,1.82s-.5-8,.75-11.75a53.85,53.85,0,0,1,2.5-6.27s.58-17.4.58-24.06S298.33,991.33,300,984.67Z"/><path class="cls-1" d="M814.53,878.11c-.78-8.74-1.35-17.49-2.09-26.23-1.09-12.85-2.56-25.66-3.76-38.5-.81-8.73-1.36-17.49-2.16-26.23-1.23-13.5-2.58-27-3.88-40.49-.74-7.74-1.44-15.48-2.25-23.22-1.2-11.5-2.55-23-3.73-34.5-1.13-11-2-22.08-3.21-33.09-1.46-13.14-3.35-26.23-4.74-39.37-1.27-12-1.93-24.08-3.18-36.09-2-19.62-4-39.23-3.93-59,0-1.91.73-4-.94-5.7,0-9.91,1-20-1.27-29.67-3.81-16.19-5.61-32.76-9.69-48.88-.31-1.21-2-5.1-2.1-6.39a3.06,3.06,0,0,0-.51.08,3.06,3.06,0,0,1,.51-.08c-2.63-7.37-6.56-14.13-10-21.1,0-.2-.12-.39-.18-.58-6.23,14.81-15.94,34.65-25,39.9,0,0-4.33,31.67-4,34a76.91,76.91,0,0,1,0,9s-7,24.67-7,27,2.33,5,0,10.67-7,22-8.67,26.67-2,31-2,31l-3.33,41-2.67,37-3.67,39-4,42-2,30S695,793,696.67,800s2,30,2,30,2.33,19,4,24.33S710.33,882,711.33,892s1.33,26.67,3.33,34.33,5.67,30.33,6.67,35.67,2.75,11.33,3.54,20,4.63,36.33,4.63,36.33v19l3.17,22.31c4.45-.7,30.57-4.59,46.08-1.39,17,3.5,18.75,5.25,18.75,5.25l1.09-6.71a164.83,164.83,0,0,0,10-41,160.94,160.94,0,0,0,2.21-17.21c.47-8.75,1.13-17.53,2.14-26.22,1.63-14,2.45-28,3.55-42C817.85,912.91,816.09,895.47,814.53,878.11Z"/></svg>