<?xml version="1.0" encoding="UTF-8"?>
<svg width="345px" height="990px" viewBox="0 0 345 990" version="1.1" xmlns="http://www.w3.org/2000/svg" xmlns:xlink="http://www.w3.org/1999/xlink">
    <title>svg图形</title>
    <defs>
        <linearGradient x1="17.9151348%" y1="115.192249%" x2="93.627451%" y2="22.1086091%" id="linearGradient-1">
            <stop stop-color="#E02020" offset="0%"></stop>
            <stop stop-color="#F7B500" offset="9.24625043%"></stop>
            <stop stop-color="#B620E0" offset="100%"></stop>
        </linearGradient>
        <rect id="path-2" x="0" y="0" width="56" height="56"></rect>
        <rect id="path-4" x="0" y="0" width="56" height="56"></rect>
    </defs>
    <g id="svg图形" stroke="none" stroke-width="1" fill="none" fill-rule="evenodd">
        <g id="编组" transform="translate(40.000000, 367.000000)">
            <g fill="#D8D8D8" id="编组备份-3" opacity="0">
                <g>
                    <rect id="矩形" x="0" y="0" width="56" height="56"></rect>
                </g>
            </g>
            <circle id="椭圆形" fill="url(#linearGradient-1)" cx="28" cy="28" r="25"></circle>
            <g transform="translate(15.000000, 15.000000)" fill="#FFFFFF" fill-rule="nonzero" id="形状">
                <path d="M13.5014062,0 C9.83460937,0 9.3740625,0.016171875 7.93476562,0.0815625 C6.49757812,0.14765625 5.51601562,0.374765625 4.65820312,0.70875 C3.75727574,1.0473914 2.94115825,1.57867165 2.266875,2.26546875 C1.58005958,2.93974047 1.04835965,3.75552556 0.70875,4.65609375 C0.3740625,5.5153125 0.14625,6.496875 0.0815625,7.93265625 C0.016875,9.3740625 0,9.83460937 0,13.5 C0,17.1667969 0.016171875,17.6252344 0.0815625,19.0652344 C0.14765625,20.5024219 0.37546875,21.4839844 0.70875,22.3417969 C1.04751318,23.2426627 1.57877727,24.0587553 2.26546875,24.733125 C2.93940957,25.4203444 3.75528953,25.9521062 4.65609375,26.29125 C5.5153125,26.6252344 6.496875,26.8530469 7.93335937,26.9184375 C9.37335937,26.9845312 9.83320312,27 13.4992969,27 C17.1660937,27 17.6252344,26.9845312 19.0652344,26.9184375 C20.5024219,26.8530469 21.4839844,26.6252344 22.3432031,26.29125 C23.2438381,25.9521781 24.0595032,25.4204 24.733125,24.733125 C25.4199404,24.0588533 25.9516404,23.2430682 26.29125,22.3425 C26.623125,21.4832813 26.8509375,20.5024219 26.9184375,19.0659375 C26.983125,17.6252344 27,17.1667969 27,13.5 C27,9.83390625 26.983125,9.37335938 26.9184375,7.93335938 C26.8509375,6.49617188 26.623125,5.5153125 26.29125,4.65679688 C25.9517712,3.75595669 25.4200607,2.93991543 24.733125,2.26546875 C24.0593053,1.57843953 23.2433611,1.04711587 22.3425,0.70875 C21.481875,0.374765625 20.5003125,0.14765625 19.063125,0.0815625 C17.623125,0.016171875 17.1646875,0 13.4971875,0 L13.5014062,0 Z M12.2899219,2.4328125 L13.5014062,2.4328125 C17.105625,2.4328125 17.533125,2.44546875 18.95625,2.51015625 C20.2725,2.570625 20.986875,2.79070312 21.4628906,2.975625 C22.0491985,3.19181763 22.5794999,3.53686196 23.0146875,3.9853125 C23.4871875,4.4578125 23.7796875,4.9078125 24.024375,5.5378125 C24.2092969,6.013125 24.429375,6.7275 24.4898437,8.04375 C24.5545313,9.466875 24.5685938,9.894375 24.5685938,13.4971875 C24.5685938,17.1 24.5545313,17.5275 24.4898437,18.950625 C24.429375,20.266875 24.2092969,20.98125 24.024375,21.4565625 C23.8081106,22.0426293 23.4630689,22.5726864 23.0146875,23.0076563 C22.5794999,23.4561068 22.0491985,23.8011511 21.4628906,24.0173437 C20.9875781,24.2029688 20.2725,24.4223437 18.95625,24.4821094 C17.533125,24.5467969 17.105625,24.5608594 13.5014063,24.5608594 C9.89648438,24.5608594 9.46898438,24.5467969 8.04585938,24.4821094 C6.72960938,24.4216406 6.01523438,24.2015625 5.53921875,24.0166406 C4.95275614,23.8003478 4.42224639,23.4553242 3.98671875,23.0069531 C3.53825511,22.5716384 3.1930049,22.0413898 2.97632813,21.4551562 C2.79140625,20.9798438 2.57132813,20.2654688 2.5115625,18.9492188 C2.446875,17.5260938 2.43421875,17.0985938 2.43421875,13.4936719 C2.43421875,9.88875 2.446875,9.46335938 2.5115625,8.04023438 C2.57203125,6.72398438 2.79140625,6.00960938 2.97632813,5.53359375 C3.19286889,4.94708686 3.53813046,4.41658057 3.98671875,3.98109375 C4.45921875,3.50859375 4.90921875,3.21609375 5.53921875,2.97070312 C6.01523438,2.78507812 6.72960938,2.56570312 8.04585937,2.50523437 C9.29179687,2.44898437 9.77414062,2.43210937 12.2899219,2.42929687 L12.2899219,2.4328125 Z M20.7077344,4.674375 C20.1288385,4.67424939 19.5938497,4.98297059 19.304293,5.48424631 C19.0147362,5.98552203 19.0146022,6.60319657 19.3039414,7.10459789 C19.5932806,7.60599921 20.1281354,7.91495253 20.7070313,7.91507812 C21.6021209,7.91507812 22.3277344,7.18946462 22.3277344,6.294375 C22.3277344,5.39928538 21.6021209,4.67367187 20.7070313,4.67367187 L20.7070313,4.674375 L20.7077344,4.674375 Z M13.5,6.5671875 C9.6721875,6.5671875 6.5671875,9.67148437 6.5671875,13.5 C6.5671875,17.3285156 9.6721875,20.4314062 13.5,20.4314062 C17.3292187,20.4314062 20.4328125,17.3285156 20.4328125,13.5 C20.4328125,9.67148437 17.3292187,6.5671875 13.5,6.5671875 Z M13.5000001,9 C15.1076952,9 16.5932668,9.8576951 17.3971144,11.25 C18.200962,12.6423048 18.200962,14.3576952 17.3971144,15.75 C16.5932668,17.1423049 15.1076952,18 13.5000001,18 C11.0147187,18 9.00000009,15.9852813 9.00000009,13.5 C9.00000009,11.0147187 11.0147187,9 13.5000001,9 L13.5000001,9 Z"></path>
            </g>
        </g>
        <g id="路径" transform="translate(41.000000, 191.000000)" fill="#39D48C">
            <polygon points="0.597675006 55.597675 0 0 55 55.597675"></polygon>
        </g>
        <g id="编组备份-11" transform="translate(128.000000, 367.000000)">
            <rect id="矩形" fill="#D8D8D8" opacity="0" x="0" y="0" width="56" height="56"></rect>
            <g id="编组" transform="translate(5.000000, 10.000000)" fill="#E96A77" fill-rule="nonzero">
                <path d="M23,0 C0.395620536,0 0,2.00351136 0,17.6511628 C0,33.2988142 0.395620536,35.3023256 23,35.3023256 C45.6043795,35.3023256 46,33.2988142 46,17.6511628 C46,2.00351136 45.6043795,0 23,0 Z M30.3715,18.4168004 L20.0445,23.2215947 C19.1406205,23.6388245 18.4,23.1711423 18.4,22.1762688 L18.4,13.1260567 C18.4,12.1334859 19.1406205,11.6635523 20.0445,12.0807309 L30.3715,16.8855252 C31.2753795,17.307309 31.2753795,17.9950166 30.3715,18.4168004 Z" id="形状"></path>
            </g>
        </g>
        <g id="编组" transform="translate(216.000000, 279.000000)">
            <g id="编组备份-14" fill="#D8D8D8" opacity="0">
                <rect id="矩形" x="0" y="0" width="56" height="56"></rect>
            </g>
            <g transform="translate(6.000000, 11.000000)" fill="#9FBB27" fill-rule="nonzero" id="形状">
                <path d="M38.6164285,0 L6.38357141,0 C2.86293812,0.00869469332 0.0105986063,2.81736239 0,6.28583333 L0,25.3618333 C0,28.8261667 2.87357142,31.654 6.38357141,31.654 L6.42857145,31.654 L6.42857145,38 L17.1514286,31.654 L38.6164285,31.654 C42.1370619,31.6453053 44.9894014,28.8366376 45,25.3681667 L45,6.28583333 C44.9876375,2.81859923 42.1358122,0.0118526025 38.6164285,0.00316669759 L38.6164285,0 Z M9.64285713,19 C7.90809176,18.9459341 6.53020383,17.5448368 6.53020383,15.8349167 C6.53020383,14.1249966 7.90809176,12.7238993 9.64285713,12.6698334 C11.4179167,12.6700304 12.8567807,14.0877376 12.8567807,15.8365 C12.8567807,17.5852624 11.4179167,19.0029696 9.64285713,19.0031667 L9.64285713,19 Z M22.5,19 C20.7652346,18.9459341 19.3873467,17.5448368 19.3873467,15.8349167 C19.3873467,14.1249966 20.7652346,12.7238993 22.5,12.6698334 C24.2750595,12.6700304 25.7139235,14.0877376 25.7139235,15.8365 C25.7139235,17.5852624 24.2750595,19.0029696 22.5,19.0031667 L22.5,19 Z M35.3635714,19 C33.6288061,18.9459341 32.2509181,17.5448368 32.2509181,15.8349167 C32.2509181,14.1249966 33.6288061,12.7238993 35.3635714,12.6698334 C37.138631,12.6700304 38.577495,14.0877376 38.577495,15.8365 C38.577495,17.5852624 37.138631,19.0029696 35.3635714,19.0031667 L35.3635714,19 Z"></path>
            </g>
        </g>
        <g id="编组-17" transform="translate(40.000000, 15.000000)">
            <rect id="矩形" fill="#CADDFF" opacity="0" x="0" y="0" width="56" height="56"></rect>
            <rect id="矩形" fill="#9DC0FF" x="5" y="5" width="46" height="46"></rect>
        </g>
        <g id="编组备份-3" transform="translate(40.000000, 543.000000)">
            <rect id="矩形" fill="#D8D8D8" opacity="0" x="0" y="0" width="56" height="56"></rect>
            <path d="M27.5884786,53 L48.1769572,23.5884786 L39.3526735,23.5884786 L39.3526735,17.7057607 L15.8234564,17.7057607 L15.8234564,23.5884786 L7,23.5884786 L27.5884786,53 Z M39.3526735,8.88189068 L15.8234564,8.88189068 L15.8234564,14.7646086 L39.3526735,14.7646086 L39.3526735,8.88189068 Z M39.3526735,3 L15.8234564,3 L15.8234564,5.94073853 L39.3526735,5.94073853 L39.3526735,3 Z" id="形状" fill="#C67E7E" fill-rule="nonzero" transform="translate(27.588479, 28.000000) rotate(-90.000000) translate(-27.588479, -28.000000) "></path>
        </g>
        <g id="编组备份-4" transform="translate(128.000000, 543.000000)">
            <rect id="矩形" fill="#D8D8D8" opacity="0" x="0" y="0" width="56" height="56"></rect>
            <polygon id="路径" fill="#FFB7C6" fill-rule="nonzero" points="31.3010528 15.9469917 31.3010528 7 52.5 28.0000944 31.3010528 49 31.3010528 40.053323 4.66666667 40.053323 4.66666667 15.9470547"></polygon>
        </g>
        <g id="编组备份-7" transform="translate(216.000000, 543.000000)">
            <rect id="矩形" fill="#D8D8D8" opacity="0" x="0" y="0" width="56" height="56"></rect>
            <g id="编组-22" transform="translate(3.000000, 17.000000)" fill="#77BCFF" fill-rule="nonzero">
                <polygon id="路径" points="38.3995775 4.79303129 38.3995775 0 49.4791667 11.2500506 38.3995775 22.5 38.3995775 17.7071373 24.4791667 17.7071373 24.4791667 4.793065"></polygon>
                <polygon id="路径" transform="translate(12.500000, 11.250000) scale(-1, 1) translate(-12.500000, -11.250000) " points="13.9204108 4.79303129 13.9204108 0 25 11.2500506 13.9204108 22.5 13.9204108 17.7071373 0 17.7071373 0 4.793065"></polygon>
            </g>
        </g>
        <g id="编组备份-10" transform="translate(216.000000, 807.000000)">
            <rect id="矩形" fill="#D8D8D8" opacity="0" x="0" y="0" width="56" height="56"></rect>
            <g id="编组" transform="translate(24.000000, 3.000000)" fill="#FFB9C5" fill-rule="nonzero">
                <polygon id="路径" points="3.02327542 19.1488166 2.96888177 0.584977769 2.96888177 0 0.00112442385 0 0.00112442385 1.06510371 0.00140548904 1.06510371 0.00140548904 20.2131473 4.03075277 24.4687131 0.00140548904 29.7882583 0.00140548904 48.9370749 0 48.9384803 0 49.9835554 2.96888177 50 2.96888177 49.4150222 3.02320514 29.7882583 8.06002977 24.4687131"></polygon>
            </g>
        </g>
        <g id="编组备份-8" transform="translate(127.000000, 631.000000)">
            <rect id="矩形" fill="#D8D8D8" opacity="0" x="0" y="0" width="56" height="56"></rect>
            <g id="编组" transform="translate(0.000000, 16.333333)" fill="#32C5FF" fill-rule="nonzero">
                <polygon id="路径" points="49.644 13.0666667 0 13.0666667 0 9.33333334 49.644 9.33333334 42.9333333 2.35573334 45.2237333 0 54.8669333 10.0277333 56 11.1925333 55.9944 11.2 56 11.2074667 54.8669333 12.3722667 45.2237333 22.4 42.9333333 20.0442667"></polygon>
            </g>
        </g>
        <g id="编组备份-5" transform="translate(216.000000, 631.000000)">
            <rect id="矩形" fill="#D8D8D8" opacity="0" x="0" y="0" width="56" height="56"></rect>
            <g id="编组" transform="translate(18.000000, 4.000000)" fill="#44D7B6" fill-rule="nonzero">
                <path d="M0,47.0754759 L9.90212486,24 L0,1.1556551 L1.89406353,0 L12.2181818,24 L1.89406353,48 L0,47.0754759 L0,47.0754759 Z M7.85454545,47.0754759 L17.7566703,24 L7.85454545,1.1556551 L9.74860898,0 L20.0727273,24 L9.74860898,48 L7.85454545,47.0754759 L7.85454545,47.0754759 Z" id="形状"></path>
            </g>
        </g>
        <g id="编组备份-15" transform="translate(39.000000, 631.000000)">
            <rect id="矩形" fill="#D8D8D8" opacity="0" x="0" y="0" width="56" height="56"></rect>
            <g id="编组" transform="translate(28.000000, 27.500000) scale(-1, 1) rotate(90.000000) translate(-28.000000, -27.500000) translate(10.500000, 2.500000)" fill-rule="nonzero" stroke="#CBE64E" stroke-width="2">
                <path d="M25.816766,1 C26.0286302,1 26.2208052,1.08462969 26.3597814,1.22253827 C26.4959267,1.35763772 26.5807971,1.54409859 26.5807971,1.7504799 L26.5807971,1.7504799 L26.5807971,28.5416597 L33.2322728,28.5416597 L26.2338052,38.9132093 L18.0930153,48.7236058 C17.9394059,48.9086057 17.7194383,49 17.5000968,49 C17.2807235,49 17.0607211,48.9085823 16.9073,48.7238323 L16.9073,48.7238323 L9.57230584,39.8846156 L1.17514755,29.7653076 L8.41862298,28.5416597 L8.41862298,1.7504799 C8.41862298,1.54411859 8.50348619,1.35767427 8.63965968,1.22259424 C8.77876745,1.08460349 8.97115692,1 9.18327283,1 L9.18327283,1 Z" id="形状"></path>
            </g>
        </g>
        <g id="编组备份-18" transform="translate(40.000000, 719.000000)">
            <rect id="矩形" fill="#D8D8D8" opacity="0" x="0" y="0" width="56" height="56"></rect>
            <g id="编组" transform="translate(5.000000, 6.000000)" fill="#A989FF" fill-rule="nonzero">
                <path d="M16.246781,0.366091114 L0.839161436,16.3542522 L0.834335199,16.3591687 C0.810360321,16.3840159 0.787711312,16.4101308 0.766483986,16.4374031 C0.761657749,16.4422718 0.761657749,16.4471406 0.756831512,16.4520571 C0.737431932,16.4764964 0.718032352,16.5058044 0.698632772,16.5351125 C0.693806535,16.540029 0.693806535,16.5448977 0.688980298,16.5498142 C0.669580718,16.5791223 0.655054691,16.6084781 0.640528664,16.6377861 C0.635702427,16.6426549 0.635702427,16.6475714 0.630828874,16.6524401 C0.615367777,16.6829476 0.60083496,16.7139249 0.587250794,16.7453285 C0.587250794,16.7501973 0.582377241,16.7551138 0.582377241,16.7551138 C0.568922719,16.7869007 0.557588931,16.8195592 0.548451634,16.8528709 C0.548451634,16.8577397 0.548451634,16.8577397 0.543625397,16.8626085 C0.533925607,16.896833 0.524225817,16.9310575 0.51939958,16.9652344 L0.51939958,16.9750673 C0.514573343,17.0092442 0.50969979,17.0434687 0.504873553,17.082562 L0.504873553,17.0874785 C0.5,17.1217031 0.5,17.1607964 0.5,17.1950209 C0.5,17.2292455 0.5,17.2683388 0.504873553,17.3025156 L0.504873553,17.3074321 C0.50969979,17.3416566 0.514573343,17.3758334 0.51939958,17.4149745 L0.51939958,17.424712 C0.524225817,17.4589366 0.533925607,17.4931611 0.543625397,17.5273379 C0.543625397,17.5322544 0.543625397,17.5322544 0.548451634,17.5371709 C0.558151424,17.5713477 0.567851214,17.6006558 0.582377241,17.634928 C0.582377241,17.6397968 0.587250794,17.6446656 0.587250794,17.6446656 C0.60177682,17.6740214 0.61147661,17.7082459 0.630828874,17.7375539 C0.630828874,17.7424227 0.635702427,17.7473392 0.640528664,17.752208 C0.655054691,17.7815638 0.674454271,17.8108718 0.688980298,17.8401798 C0.693806535,17.8450963 0.693806535,17.8499651 0.698680088,17.8548816 C0.718079668,17.8841897 0.737431932,17.9086289 0.756831512,17.937937 C0.761657749,17.9428535 0.761657749,17.9477222 0.766483986,17.9477222 C0.790709802,17.977078 0.810109382,18.0015173 0.834335199,18.0259566 L0.839161436,18.0308254 L16.246781,34.0189865 C16.7070715,34.4980347 17.4629454,34.5077722 17.9377619,34.0434258 C18.4125785,33.5790794 18.4222782,32.8165928 17.9619877,32.3375923 L4.51665936,18.3827606 C6.16884115,18.3729754 7.77261861,18.3534048 9.34242316,18.333882 C16.3194584,18.2507789 22.3420343,18.1823298 27.3277264,18.8519758 C32.5798078,19.5607151 36.2040278,21.0661655 38.7332126,23.5883283 C42.4010107,27.2444358 44.1064704,33.3444718 44.1064704,42.7927375 C44.1064704,43.457467 44.6394383,44 45.3032352,44 C45.967032,44 46.5,43.472121 46.5,42.802475 C46.5,32.669957 44.5667609,26.0224715 40.4144937,21.8824471 C37.4976959,18.9741722 33.4374585,17.253637 27.6474882,16.4667111 C22.4922155,15.7677571 16.3873096,15.841075 9.31819734,15.9241781 C7.76291882,15.9437486 6.1737147,15.9632714 4.54088518,15.9730567 L17.9619877,2.04753301 C18.1897199,1.81292542 18.3011492,1.50986874 18.3011492,1.20681206 C18.3011492,0.894017856 18.1800201,0.576259418 17.9377619,0.341651829 C17.4629454,-0.122694585 16.7070715,-0.112909324 16.246781,0.366091114 Z" id="路径" transform="translate(23.500000, 22.000000) scale(-1, 1) translate(-23.500000, -22.000000) "></path>
            </g>
        </g>
        <g id="编组" transform="translate(128.000000, 719.000000)">
            <g id="编组备份-19" transform="translate(-3.000000, -1.000000)">
                <rect id="矩形" fill="#D8D8D8" opacity="0" x="3" y="1" width="56" height="56"></rect>
                <g id="编组" transform="translate(29.386752, 28.815115) scale(-1, -1) rotate(-40.000000) translate(-29.386752, -28.815115) translate(7.386752, 10.315115)" fill="#000000" fill-rule="nonzero">
                    <path d="M29.6750097,5.82903059 C28.9813497,5.92905707 28.2832073,6.04908887 27.6063565,6.23358217 C27.5724752,6.20508751 27.5320794,6.18524638 27.488692,6.17578908 C27.0213961,6.07131698 26.5518589,5.97573608 26.0823217,5.88348946 C26.5541554,5.80439972 27.0248586,5.71881325 27.4942951,5.6267548 C27.9985713,5.52450549 28.6305975,5.48782911 29.0855667,5.22776022 C29.5674307,5.36112887 30.0492947,5.50005456 30.5277968,5.65231712 C30.2129043,5.71122161 29.900253,5.79679982 29.6761303,5.82903059 M29.4587312,7.85178854 C28.9029067,7.89402197 28.2966546,8.10852321 27.7553981,8.19965846 C27.1491461,8.30301917 26.5372909,8.39637725 25.9400037,8.54530556 C26.5116287,7.93800715 27.0643508,7.31347452 27.5973916,6.67258735 C27.6272961,6.64719108 27.651369,6.61573664 27.6679903,6.5803407 C28.4042335,6.48698265 29.1415974,6.39807019 29.8767201,6.30248932 C30.1142902,6.27136998 30.4706455,6.27248138 30.8034678,6.22691373 C30.3126389,6.69370402 29.8744789,7.29497439 29.4587312,7.85289997 M28.896183,8.57531354 C28.6369243,8.88346312 28.3773152,9.19132262 28.1173564,9.49889146 C27.0057074,9.51778535 25.8380278,9.65448821 24.7185346,9.81786483 C25.0491157,9.48333179 25.3752143,9.1443531 25.6979511,8.80315166 C25.7270871,8.82760259 25.7651879,8.84205086 25.8100125,8.8331596 C26.5686681,8.67534002 27.3396504,8.58309337 28.1061502,8.47528702 C28.365012,8.43972203 28.733694,8.42416236 29.0687576,8.36414648 C29.0116063,8.43638785 28.9533343,8.50862918 28.896183,8.57531354 M26.8376154,11.0059573 C26.8065236,10.9857854 26.7689564,10.9778581 26.7322777,10.9837292 C25.4446924,11.1604427 24.1727957,11.4360712 22.8885722,11.6394584 C23.3861248,11.15044 23.8814361,10.6591988 24.3745062,10.1657348 C25.0446332,10.0912706 25.7192428,10.0412573 26.3916111,9.98902129 C26.8252886,9.95567913 27.3452535,9.97679584 27.7991021,9.87788075 C27.4797271,10.2535358 27.1603522,10.6314137 26.8376154,11.0059573 M25.5903722,12.4430046 C25.4290038,12.4152194 25.3191836,12.5874873 25.3584051,12.7353042 C24.9011947,12.767535 24.4282956,12.8653387 23.9778089,12.8753413 C23.466809,12.8864554 22.9558091,12.8697843 22.4436885,12.8564474 C22.3148179,12.7230788 22.178103,12.5741504 22.0290614,12.4885722 L22.6487609,11.8772992 C23.9453111,11.7250366 25.2373788,11.5294293 26.5316878,11.3627185 C26.2201572,11.7239252 25.9063853,12.085132 25.5903722,12.4430046 M28.7236085,14.9514468 C28.359409,14.9592266 27.9615911,15.0881496 27.6231657,15.1448313 C27.1379399,15.2259639 26.6538347,15.3115421 26.1719708,15.4093458 C25.6265353,15.0712786 25.0845049,14.7278373 24.5459601,14.3790729 C25.0323065,14.3323939 25.5186529,14.2923833 26.0061199,14.2545955 C26.3400629,14.2279218 27.01019,14.2912719 27.2791373,14.0412057 C27.7598806,14.3457308 28.2417445,14.6491445 28.7247291,14.9514468 M29.0575514,15.160391 L30.2061806,15.8794703 C29.914821,15.9461546 29.6212202,16.0461811 29.3511522,16.0961944 C28.8042927,16.1995551 28.2529507,16.2851333 27.7016087,16.3729344 C27.2888552,16.1084733 26.8742177,15.846916 26.4577273,15.5882821 C26.8499422,15.5293776 27.2443982,15.4738073 27.6377337,15.418237 C28.0747731,15.3571097 28.5678432,15.3648896 28.9835909,15.2248525 C29.0158132,15.2138149 29.0423742,15.1906653 29.0575514,15.160391 M32.2468184,17.1420269 C31.9106342,17.1720349 31.5733295,17.2320508 31.2606782,17.276507 C30.7306279,17.3520826 30.1916126,17.4587775 29.7097487,17.6943955 C29.1774571,17.3387457 28.6451655,16.9864302 28.1106327,16.6352261 L27.9638323,16.5407566 C28.3829419,16.4918547 28.8031721,16.4440643 29.221161,16.388494 C29.6324263,16.3351466 30.2229898,16.3262553 30.6420994,16.1495419 L32.2468184,17.1420269 M34.1417764,18.3090027 C33.1578775,18.3590159 32.1762197,18.5312838 31.2046475,18.6946604 L29.9428363,17.8499922 C30.4179766,17.6743902 30.9312177,17.6010374 31.4310115,17.5443557 C31.8658097,17.4954539 32.3275026,17.5221276 32.764542,17.4598889 L34.142897,18.3090027 M34.8780197,18.7624561 C35.0685241,18.8802651 35.2612697,18.9947399 35.4562564,19.1081032 C35.1805854,19.1692305 34.9026732,19.269257 34.6550175,19.3292729 C34.0330769,19.4815355 33.4111362,19.6293524 32.7835924,19.7582755 C32.3499149,19.463753 31.9128755,19.1714534 31.4780773,18.8791537 C32.4052916,18.7752814 33.3344564,18.6893165 34.2650439,18.6213077 C34.3591755,18.6146392 34.4051207,18.5457321 34.4107237,18.4746021 L34.8780197,18.7635675 M37.5966289,20.2973071 C37.2492386,20.3862196 36.8996071,20.5084742 36.583594,20.5818269 C35.9594121,20.7285324 35.3184209,20.8463414 34.7043246,21.0375031 C34.3768609,20.8261699 34.0514937,20.6116583 33.7282699,20.3939994 L33.0872788,19.962774 C34.0353181,19.8194027 34.9956841,19.6182383 35.9168287,19.3715063 C36.470412,19.6849227 37.0329601,19.9894478 37.5977495,20.2961957 M39.4960693,21.3775932 C39.0063611,21.4198267 38.498723,21.5643094 38.0280652,21.6387735 C37.3624206,21.7454684 36.6945347,21.8243782 36.0244077,21.8943968 C35.6658112,21.6598902 35.3072148,21.4287179 34.9519802,21.1997684 C35.5100459,21.0719567 36.0692322,20.9519249 36.632901,20.8507871 C37.071061,20.7729887 37.6672276,20.7540948 38.124438,20.5862725 C38.5872515,20.8418958 39.0467032,21.1030761 39.4960693,21.3775932 M41.0649287,22.4389855 C40.5404814,22.4889987 39.9891394,22.6757149 39.482622,22.7724071 C38.922315,22.8802134 38.3575257,22.9846855 37.8073043,23.1369481 C37.3260445,22.7758638 36.8338694,22.4293169 36.3314559,22.097784 C36.9040895,22.0655532 37.4756026,21.9977575 38.0448744,21.9344074 C38.6320761,21.8677231 39.3492689,21.8677231 39.8972491,21.6287709 C40.2984288,21.8843942 40.6895231,22.1522429 41.0649287,22.4389855 M41.3730975,22.6812719 C41.8661676,23.079155 42.3301017,23.5114918 42.7503319,23.9927303 C42.2460557,23.9660566 41.7193672,24.0894226 41.2262971,24.161664 C40.5886678,24.2561334 39.9510385,24.3439345 39.3100474,24.4217328 C38.9168892,24.0359412 38.501569,23.6730174 38.0661661,23.3347783 C38.6152668,23.2169693 39.1733325,23.1291683 39.729157,23.04359 C40.2356745,22.9657917 40.9147665,22.9569004 41.3652532,22.6879403 L41.3730975,22.6812719 M42.9811784,24.2594676 L42.1833013,25.1508148 C42.1519241,25.0996902 42.091411,25.066348 42.0096062,25.0819077 C40.9876064,25.2764037 39.9230232,25.2163878 38.887576,25.3597591 C38.9951549,25.2586212 39.1004927,25.1552605 39.2103128,25.055234 C39.2336769,25.0331292 39.253012,25.0071848 39.2674641,24.978547 C39.4523654,25.0230032 39.5868391,24.8051677 39.5106373,24.6406797 C40.0261197,24.6184516 40.5393608,24.5617699 41.0492401,24.5028654 C41.6521303,24.4361811 42.2953627,24.4339583 42.8859262,24.2983669 C42.9189881,24.2907093 42.9476167,24.2703141 42.9654898,24.2416852 L42.9811784,24.260579 M41.0055362,26.477833 C39.772861,26.6612149 38.5368239,26.7756897 37.2985456,26.9068355 C37.7411881,26.4589391 38.193916,26.0177111 38.6511265,25.5831516 C39.2584992,25.543141 39.8681131,25.5442524 40.4754858,25.5242471 C40.9125252,25.5097988 41.4728321,25.5709261 41.9210777,25.4453373 C41.6140295,25.789873 41.3092225,26.1332973 41.0055362,26.4789444 M39.8580276,27.782623 C39.3391834,27.7014904 38.6712975,27.889318 38.1838305,27.9604479 C37.4363811,28.0693656 36.6911729,28.188286 35.9459647,28.3105406 C36.3325765,27.8982092 36.7259119,27.4914348 37.1226092,27.0868832 C37.1394185,27.1268938 37.1786399,27.1580131 37.2369118,27.1580131 C38.3855411,27.1513447 39.531929,26.9857453 40.6738345,26.8545994 L39.8580276,27.782623 M38.6925892,29.1218666 C38.652822,29.0933525 38.6029065,29.0824855 38.5547537,29.0918587 C37.3332846,29.3141398 36.1174186,29.3508161 34.885864,29.4563997 C35.1548113,29.1618772 35.4248793,28.870689 35.6971884,28.5783893 C35.7117177,28.5826403 35.7269226,28.5841483 35.742013,28.582835 C36.4939448,28.5105936 37.2436355,28.4072329 37.9933262,28.3160976 C38.4404511,28.2605274 39.0052405,28.2727528 39.5005518,28.1927316 L38.6914686,29.1218666 M37.6661069,30.304402 C37.1125237,30.2555002 36.5286839,30.3677521 35.9807037,30.422211 C35.2635109,30.4944524 34.546318,30.5655823 33.8291251,30.627821 C34.1260878,30.2943994 34.4252917,29.9632006 34.7256162,29.6331131 C34.7334605,29.635336 34.7413048,29.6375587 34.7502697,29.6375587 C35.953809,29.6320017 37.2077759,29.687572 38.3967472,29.4608453 L37.6661069,30.304402 M36.6508308,31.4769348 C36.6256275,31.4288881 36.5754475,31.3988559 36.5208396,31.3991365 C35.826059,31.3958022 35.1021425,31.5880754 34.4152062,31.6881019 C33.8548993,31.7703458 33.2945924,31.8325846 32.729803,31.8614811 C33.0278863,31.5258367 33.3248489,31.1901922 33.6240528,30.8556591 C34.3605057,30.8284973 35.0964705,30.7895931 35.8316621,30.7389616 C36.3370589,30.7056194 36.8693505,30.7067308 37.3792298,30.6356009 L36.6508308,31.4769348 M35.5772827,32.7150405 C35.5660766,32.7117063 35.5548705,32.7083721 35.5436643,32.7083721 C34.9452565,32.6761413 34.2807325,32.8706373 33.6744804,32.9084251 C33.0390924,32.9506585 32.4003425,32.9539927 31.7627132,32.9528813 L32.5449017,32.0693139 C33.1746867,32.0693139 33.803351,32.0259691 34.4297741,31.9703988 C35.0886951,31.9114944 35.8058879,31.8770408 36.4513615,31.7069958 L35.5772827,32.7150405 M34.7480285,33.6708492 C33.3136428,33.70308 31.7817637,34.1131886 30.3888407,34.4921779 C30.7888998,34.0476157 31.1855971,33.6030535 31.5822944,33.1562685 C32.2849193,33.1851651 32.9864235,33.204059 33.6890484,33.1918335 C34.1541032,33.1840536 34.7614759,33.2173958 35.2556666,33.08625 L34.7491491,33.6708492 M33.4032919,35.2090344 C33.3795941,35.1836662 33.3480504,35.1668508 33.3136428,35.161244 C33.0166801,35.120122 32.7376473,35.2179256 32.4418052,35.2546021 C31.9756299,35.3123952 31.5038514,35.3246206 31.0365555,35.3579628 C30.4684634,35.3890568 29.9051486,35.4784466 29.3556347,35.6247001 C29.6189789,35.3401803 29.8789614,35.0545491 30.1400644,34.7678064 C31.5408317,34.4566129 33.0088358,34.3565864 34.4107237,34.0565069 C34.0756602,34.4421646 33.739476,34.8255995 33.4021713,35.2090344 M22.7630635,13.1365216 C23.1732082,13.1587497 23.5833528,13.1809778 23.9946181,13.1887576 C24.5179448,13.1987603 25.219449,13.2598876 25.7282077,13.0476092 C26.1260256,13.3043438 26.5238435,13.5610785 26.9239027,13.8144789 C26.8846812,13.8222588 26.8443391,13.8300386 26.8006351,13.8367071 C26.4891045,13.8856089 26.1730914,13.918951 25.8581989,13.954516 C25.3113394,14.0167547 24.761118,14.0678794 24.2198615,14.1656831 C23.7224245,13.8390282 23.2365344,13.4953983 22.7630635,13.1354102 M28.6765427,35.5802439 C26.2145541,33.2629634 23.9027278,30.8000889 21.6693444,28.2671958 C19.4225136,25.7154088 17.3695491,22.9980224 15.1059091,20.4640179 C15.0386723,20.3895538 14.9479025,20.4051134 14.8851482,20.4584609 C14.839968,20.4580269 14.7954865,20.4695354 14.7562776,20.4918031 C12.540824,21.7621395 11.0167892,24.2505764 9.45913596,26.2155413 C7.77597398,21.6943438 6.36063869,17.0831225 4.62816971,12.5785961 C3.98157552,10.898151 3.19042214,9.27327617 2.49227971,7.61394777 C1.8277557,6.03908621 1.41985227,4.51312649 1.04668786,2.86491218 C4.95202709,2.3403288 8.94365357,3.54842654 12.7346902,4.33641303 C17.4300622,5.31444986 22.2352544,5.62453197 26.9239027,6.62257409 C25.2373788,8.59309599 23.2942344,10.3268886 21.6323641,12.3174158 C21.597096,12.3559657 21.5790947,12.4070504 21.5824738,12.458996 C21.5858529,12.5109415 21.6103236,12.5593086 21.6502939,12.5930443 C21.5292676,13.1943147 23.1070919,14.0989988 23.4432761,14.3346167 C24.7207759,15.2326324 26.0688743,16.0317329 27.390078,16.865287 C29.0934111,17.9400161 30.7474371,19.099212 32.4193929,20.2195087 C33.6711186,21.0575084 34.915,21.9088451 36.1454339,22.7768527 C37.0228746,23.397017 37.8622143,24.1183192 38.7721528,24.6973614 C35.1255852,28.0616256 31.759483,31.7130234 28.7067993,35.6158088 C28.6978344,35.6035834 28.6888695,35.5913579 28.6765427,35.5802439 M13.933747,21.8243782 C14.2755342,21.5076277 14.6296482,21.2053254 15.0072951,20.9241398 C15.1977994,21.204214 15.3939069,21.4820654 15.5922555,21.7576939 C15.0386723,21.7854791 14.4873303,21.8243782 13.933747,21.8243782 M15.8499967,22.6657122 C14.8436855,22.6612666 13.8530628,22.8713222 12.8489928,22.9102214 C13.121302,22.6168103 13.4025761,22.3322905 13.6894532,22.0555506 C14.3920781,22.1055638 15.1014267,22.0966726 15.8006897,22.0555506 L15.8096546,22.0533278 L16.1010142,22.4534337 C16.0158475,22.5223409 15.9329221,22.5934708 15.8488761,22.6646008 M14.8817863,23.5648392 C13.9752097,23.6359692 13.0697537,23.7426641 12.1598153,23.6726456 C12.3346311,23.4748154 12.5105674,23.279208 12.6876244,23.0847121 C13.6199751,23.1291683 14.5478434,23.0046909 15.4801941,22.9902426 C15.2751218,23.1769587 15.0767731,23.3681205 14.8817863,23.5648392 M14.0368435,24.4795259 C13.9994057,24.4462507 13.9474904,24.4341111 13.899008,24.4472952 C12.9845871,24.6740219 12.0656838,24.7673799 11.133333,24.855181 C11.4146071,24.5306506 11.6947606,24.2050088 11.9771553,23.8815898 C12.8377867,23.9982874 13.7029006,23.9393829 14.5668938,23.8882582 C14.386475,24.0816428 14.2082974,24.2772501 14.0368435,24.4795259 M13.1000103,25.6742868 C12.4590192,25.5820402 11.7149316,25.7320799 11.0918703,25.842109 C10.6996555,25.913239 10.3164056,26.031048 9.94660299,26.1799763 C10.2984757,25.8065441 10.6391423,25.4231092 10.9775677,25.0352287 C11.9132803,25.0241146 12.8624402,24.9774356 13.7791023,24.7851624 C13.544894,25.0730164 13.3196506,25.3697617 13.1000103,25.6742868 M3.1455976,0.976634268 C3.16800987,0.975522873 3.18818094,0.975522873 3.21059318,0.965520214 C3.60280802,0.815480471 4.05777724,0.816591866 4.51050525,0.871050739 C3.77090012,1.27893654 3.03465683,1.68237673 2.38694203,2.23474527 C2.37074913,2.24799483 2.3590203,2.26583126 2.35332362,2.28586992 C2.03618989,2.31365508 1.72017681,2.34922003 1.40528429,2.40256751 C1.96559123,1.90021223 2.49564156,1.36673761 3.1455976,0.976634268 M5.07753584,0.961074564 C5.29381429,1.00219656 5.50336909,1.04554138 5.70059715,1.08110637 C5.96170019,1.12778541 6.2228032,1.18002145 6.4827856,1.23336893 C5.75886905,1.52455715 5.04615867,1.86798146 4.36706667,2.25252776 C3.85193754,2.22612206 3.33578675,2.2257511 2.82061958,2.25141633 C3.53445059,1.75906371 4.31103598,1.37118319 5.07753584,0.962185994 M6.97473507,1.33672964 C7.3344521,1.41452801 7.69528978,1.49232639 8.05612745,1.56679058 C7.50030299,1.86909286 6.93663421,2.1558355 6.37968912,2.45591495 C5.87989535,2.38256219 5.38122219,2.32588052 4.88254902,2.28698132 C5.54099673,1.98324351 6.20723658,1.69640545 6.88060352,1.42675346 C6.92308792,1.41079785 6.95711352,1.37825707 6.97473507,1.33672964 M8.46515148,1.64347756 C8.95710095,1.73350142 9.45577412,1.80240853 9.95556788,1.86242442 C9.82669729,1.93577718 9.70567098,2.01468698 9.60817759,2.06358881 C9.14643853,2.29852458 8.68659866,2.53711389 8.22870195,2.77933394 C7.72159656,2.67706331 7.21234841,2.58553675 6.70130529,2.50481678 C7.25600914,2.25697334 7.80510991,2.00023867 8.36429624,1.76239793 C8.4164944,1.74287154 8.45469659,1.6978266 8.46515148,1.64347756 M12.0735281,2.12693892 C12.2270522,2.15138985 12.3794556,2.17917496 12.5329797,2.20473733 C11.74855,2.54927303 10.9484318,2.86046657 10.1550371,3.18277413 C10.1483135,3.18610835 10.143831,3.19055396 10.1393486,3.19388818 C9.62386621,3.0771906 9.10502198,2.96049302 8.58281594,2.8515753 C8.92796499,2.69597855 9.27199344,2.54038176 9.61714252,2.3870078 C9.88721046,2.26586461 10.3533858,2.16139247 10.5797498,1.93355439 C11.0806642,1.99134748 11.580458,2.04914058 12.0746487,2.12693892 M13.0944073,2.29920677 C13.4496418,2.35922265 13.8048764,2.41701574 14.160111,2.47925445 C13.4474006,2.78266816 12.7548613,3.14387492 12.1699008,3.64845302 C11.6174382,3.53064405 11.0560107,3.40172102 10.4901007,3.27279799 C11.3260786,2.95938166 12.1598153,2.63707406 13.0092406,2.36477969 C13.0442741,2.35361772 13.0741,2.33034746 13.0932867,2.29920677 M16.0786019,2.82156736 L16.2310054,2.84601826 C15.4958827,3.25723828 14.7428302,3.62733631 13.9897777,4.0063256 C13.5044871,3.91951476 13.0203419,3.82651948 12.5374622,3.72736283 L12.4007473,3.69846628 C13.1526792,3.22945317 13.9539181,2.91270262 14.7876548,2.59039502 L16.0786019,2.82045593 M18.5551585,3.23167599 C18.3713778,3.32392264 18.1887178,3.41950351 18.0049371,3.50619311 C17.4255797,3.78182167 16.8428606,4.05078178 16.2702269,4.33752442 C16.2521925,4.34687993 16.2385304,4.36282092 16.232126,4.38198064 C15.6174076,4.28727118 15.0036544,4.18649876 14.3909575,4.07967836 C15.1977994,3.73958828 15.9990384,3.37171307 16.7576939,2.93604212 C17.3572223,3.03829143 17.9567507,3.13720652 18.5551585,3.23278739 M20.8120748,3.58510292 C20.0108359,3.85962008 19.2140794,4.19971017 18.559641,4.72318212 C17.8906345,4.62982408 17.2227486,4.53202038 16.5537422,4.4308825 C17.3975644,4.08968102 18.3243121,3.7651506 19.1199479,3.32058842 C19.6836166,3.40950085 20.248406,3.49841328 20.8120748,3.58510292 M23.1676051,3.96520361 C22.9053814,4.08078979 22.6487609,4.20971282 22.398864,4.32641037 C21.8889847,4.56202832 21.3813466,4.80209193 20.8748292,5.04548971 C20.2125464,4.95213167 19.549143,4.86099641 18.8868602,4.76874977 C19.7161144,4.28862259 20.6159674,4.00965982 21.5303882,3.69846628 C22.0772478,3.78515592 22.6229867,3.87295696 23.1664845,3.96520361 M25.4189183,4.3753122 C24.5459601,4.6398267 23.6853287,4.99769928 22.8415064,5.33112093 C22.3215416,5.25109972 21.7993356,5.17552417 21.2771295,5.10217141 C22.0996503,4.74174435 22.9294483,4.39787905 23.7660129,4.0707871 C24.3184755,4.16747936 24.8686969,4.26639445 25.4177976,4.3753122 M28.5308629,5.07883187 C27.5223104,5.24109707 26.5059137,5.48116067 25.5343415,5.77901733 C24.8077392,5.64543453 24.0792673,5.52205617 23.3491445,5.4089193 C24.299425,5.13995919 25.2653942,4.87766748 26.1831769,4.5353546 C26.9676066,4.69984262 27.7520363,4.87544469 28.5308629,5.07883187 M31.5419523,5.74567517 C31.5261207,5.71012843 31.4984165,5.6810818 31.4635093,5.66343118 C31.4419324,5.65410153 31.4198613,5.64593924 31.3973931,5.63898025 C31.3837714,5.61800934 31.3643079,5.60140822 31.3413624,5.59118981 C29.8621521,4.96546851 28.3381173,4.49867822 26.7883084,4.12191175 C26.769258,4.08634677 26.7322777,4.06300727 26.676247,4.07189853 L26.6280606,4.08301258 C22.9345174,3.20166805 19.1008975,2.83934986 15.370374,2.17361796 C12.831063,1.72016451 10.222274,1.49788343 7.70537531,0.963297389 C6.50407727,0.707674118 4.63377276,0.0141571019 3.33161948,0.399814798 C3.25577809,0.364436656 3.16773543,0.365666505 3.09292875,0.403149017 C2.05860217,0.901058681 1.3895957,1.82241382 0.582753744,2.59706346 C0.487501559,2.69042151 0.539049798,2.83045863 0.634301983,2.8915859 C0.494225249,4.19748734 1.2181418,5.72011284 1.67647282,6.89264563 C2.38133894,8.69867952 3.22740237,10.4469204 3.96924874,12.238506 C5.90006638,16.8986292 7.22911442,21.779922 9.15432901,26.4433794 C9.17225884,26.4878356 9.2013948,26.5156208 9.23501318,26.5345147 C9.18682679,26.6178701 9.26863159,26.7545729 9.37621055,26.7101167 C10.0015131,26.447825 10.6537103,26.3366845 11.3260786,26.2555519 C11.9457781,26.1810877 12.639438,26.2455492 13.2367252,26.0632787 C13.2877035,26.0476802 13.3288725,26.0101159 13.3487866,25.9610294 C14.2788961,24.8329529 15.2627951,23.7771177 16.4024593,22.8579853 C17.8558955,24.76738 19.4494084,26.5889735 21.0160265,28.3916732 C23.3177673,31.0401525 25.7226046,33.6063877 28.2843279,36.0125806 C28.3223188,36.049515 28.3701278,36.0749578 28.4221634,36.0859333 C28.4221634,36.2004081 28.5286217,36.3248855 28.6574923,36.2737609 C29.5573452,35.9125541 30.524435,35.8736549 31.4825597,35.8180846 C32.0193338,35.7880767 32.8194521,35.8514268 33.3046779,35.5469017 C33.3562261,35.5835781 33.4301866,35.5913579 33.4895791,35.5346762 C37.0733022,32.1048789 40.1404223,28.1860632 43.4630423,24.5128681 C43.617687,24.3428231 43.4876958,24.131656 43.3173625,24.0871998 C41.6812663,21.4309407 38.2633941,20.1072568 35.6579669,18.6213077 C32.3241408,16.7208043 29.2065931,14.4524257 25.8525958,12.5741504 C27.0236373,11.5216494 28.048999,10.3646764 29.0698782,9.16769264 C29.8901675,8.2063269 31.1116366,7.15493731 31.6640992,6.01352389 C31.7201299,5.8979377 31.6461694,5.78012872 31.5419523,5.74678656" id="形状"></path>
                </g>
            </g>
        </g>
        <g id="编组备份-20" transform="translate(216.000000, 719.000000)">
            <g id="形状">
                <mask id="mask-3" fill="white">
                    <use xlink:href="#path-2"></use>
                </mask>
                <use id="蒙版" fill="#D8D8D8" opacity="0" xlink:href="#path-2"></use>
                <path d="M38.8379581,48.9882027 C41.9668708,48.442106 45.1628659,47.8271323 48.2294399,47.0744044 C49.0296365,46.8677732 49.1638012,45.8444569 48.8283895,45.1606062 C46.9644583,42.4940801 45.2346919,39.6897998 43.6342986,36.8215624 C42.9011843,35.4538608 40.9701708,36.8215624 41.7032851,38.258141 C42.8341019,40.3096934 43.8355456,41.6773949 45.0334448,43.1828014 C39.173322,40.7917836 32.7142496,39.9701787 27.9849436,35.2521002 C27.0505822,34.2927412 26.1210125,33.1316708 25.4549805,31.8328463 C25.5220629,31.8328463 25.5220629,31.9017233 25.5220629,31.9017233 L25.5220629,31.8328463 C26.7870923,32.2411888 28.1861907,32.516697 29.4511722,32.5855741 C39.0391573,33.0627937 46.897376,24.1087762 39.8393539,15.287593 C33.4425723,7.34705218 21.789409,16.2371124 21.1904594,24.5072792 C21.123377,25.1222529 21.123377,25.7372266 21.1904594,26.3522496 L21.123377,26.3522496 L21.123377,26.4900037 C15.7951215,22.6624072 11.6695567,16.7143813 11.4012272,10.0825045 C11.2671104,8.50817178 8.87126415,8.71480296 9.00542886,10.2891357 C9.40313139,17.7376975 14.8607601,26.2194152 21.8564913,30.1847659 C21.8564913,30.2536429 21.9235737,30.2536429 21.9235737,30.32252 C21.9906561,30.4602741 22.0577384,30.4602741 22.1248208,30.4602741 C23.1214729,33.1956772 24.9901956,35.7244 27.0505822,37.7071245 C32.1105084,42.2874489 38.5024985,43.1090538 44.496786,45.6378258 C42.4986901,46.0461683 40.9653792,46.1150454 38.5695808,46.5283569 C37.1033522,46.7301175 37.3045993,49.1899632 38.8379102,48.9882519 L38.8379581,48.9882027 Z M24.1465164,29.1666509 C24.0782626,29.1004857 23.9417552,29.0343205 23.7418692,28.9681553 L23.6736155,28.7696597 L23.537108,28.6373294 C23.1324609,27.1911945 23.1324609,25.5511957 23.4006493,24.0388484 C24.4829585,19.1851588 29.4996081,14.3881822 34.5113823,15.8343643 C38.4408474,16.9497205 40.6785948,20.234397 40.132565,23.8450789 C39.7279178,26.7988822 37.9630712,28.1127339 35.2524229,29.3604204 C31.5959728,31.0712633 27.7348102,30.9389329 24.1465651,29.1666509 L24.1465164,29.1666509 Z" fill="#F74747" fill-rule="nonzero" mask="url(#mask-3)" transform="translate(29.000000, 29.000000) scale(1, -1) rotate(-29.000000) translate(-29.000000, -29.000000) "></path>
            </g>
            <g id="编组"></g>
        </g>
        <g id="编组备份" transform="translate(128.000000, 191.000000)">
            <rect id="矩形" fill="#D8D8D8" opacity="0" x="0" y="0" width="56" height="56"></rect>
            <g id="编组" transform="translate(5.500000, 5.333333)" fill="#9AD8FF">
                <polygon id="路径" points="44.5 46.1333333 22.5 30.2102564 0.5 46.1333333 0.5 0.133333333 44.5 0.133333333"></polygon>
            </g>
        </g>
        <g id="编组" transform="translate(216.000000, 367.000000)">
            <g id="编组备份-9" fill="#D8D8D8" opacity="0">
                <rect id="矩形" x="0" y="0" width="56" height="56"></rect>
            </g>
            <g transform="translate(8.000000, 8.000000)" fill-rule="nonzero">
                <path d="M31.4285714,40 L8.57142855,40 C3.84285711,40 0,36.1571429 0,31.4285714 L0,8.57142855 C0,3.84285711 3.84285715,0 8.57142855,0 L31.4285714,0 C36.1571429,0 40,3.84285715 40,8.57142855 L40,31.4285714 C40,36.1571429 36.1571429,40 31.4285714,40 Z" id="路径" fill="#170B1A"></path>
                <path d="M20.4188948,12.5987392 C20.4331551,10.3943253 20.4188948,8.20441397 20.4331551,6 L24.8538324,6 C24.8395722,6.39157355 24.8966132,6.78314706 24.9536542,7.14571514 L21.7023173,7.14571514 L21.7023173,24.9985679 C21.7165775,25.7527096 21.5311943,26.5213539 21.1604278,27.1739765 C20.5757576,28.2036698 19.5347593,28.8707951 18.3654189,28.9868169 C17.6381461,29.0448278 16.8966132,28.9143033 16.2406417,28.5372325 C15.741533,28.2616808 15.3279858,27.8701072 15,27.40602 C16.1265597,28.0441399 17.5953654,27.986129 18.6934046,27.2754955 C19.7486631,26.6083703 20.4331551,25.3756388 20.4331551,24.0848963 C20.4188949,20.27068 20.4188949,16.4274583 20.4188948,12.5987392 Z M27.7058823,11.3370023 C28.3190731,11.7285758 29.0035651,12.033133 29.7165776,12.192663 C30.1443851,12.2941821 30.5579323,12.3231875 31,12.3231875 L31,13.3383781 C29.7308378,13.0338209 28.5757576,12.3376902 27.7058823,11.3370023 L27.7058823,11.3370023 Z" id="形状" fill="#25F4EE"></path>
                <path d="M12.7795924,17.2174923 C14.3346075,16.2125178 16.1811878,15.810528 18,16.0833068 L18,17.1457084 C17.5140578,17.1600652 17.0558838,17.2174923 16.5699416,17.3179897 C15.4175643,17.562055 14.3207234,18.078899 13.3627231,18.796738 C12.3353024,19.5863608 11.5577949,20.6631192 11.0163165,21.8547319 C10.4887221,23.0032742 10.238809,24.2523139 10.252693,25.5157105 C10.252693,26.908318 10.6275627,28.2434985 11.2523455,29.4638247 C11.5439108,30.0237391 11.8910124,30.5549399 12.3353024,31 C11.4176607,30.3342659 10.6542203,29.4663793 10.0999684,28.4588502 C9.3363449,27.1236697 8.96147523,25.5731376 9.00312739,24.0082487 C9.05866363,22.5869276 9.44741739,21.1799633 10.1832727,19.9452803 C10.8219396,18.8398083 11.7105196,17.9066177 12.7795924,17.2174923 L12.7795924,17.2174923 Z" id="路径" fill="#25F4EE"></path>
                <path d="M21.7782394,7 L25.0199328,7 C25.1331798,7.63137675 25.3596736,8.23405453 25.642791,8.80803336 C26.0957787,9.69770059 26.7469486,10.4869215 27.5821447,11.0035024 C27.6387681,11.0465508 27.6812357,11.0752498 27.7095475,11.1326477 C28.5588995,12.1084117 29.7196806,12.8258853 30.9937085,13.1128747 C31.0078644,14.2608324 30.9937085,15.437489 30.9937085,16.5997962 C28.828977,16.6081118 26.7157367,15.9308537 24.9491535,14.6626176 C24.9491535,17.4320655 24.9491535,20.2015134 24.9633094,22.9709614 C24.9633094,23.3296981 24.9774652,23.7027844 24.9633094,24.0902201 C24.8642183,25.4534199 24.4536982,26.7592217 23.7883725,27.9358784 C23.2221379,28.9546908 22.4435652,29.8587075 21.509278,30.5474821 C20.3060294,31.4514988 18.8479751,31.9537303 17.3474533,31.9967787 C16.5830365,32.0111282 15.8327755,31.9824292 15.0825146,31.8102356 C14.0349805,31.580644 13.0440698,31.1358105 12.180562,30.5187832 L12.1239385,30.4613853 C11.6851066,30.0165517 11.33121,29.4856213 11.0197809,28.9259919 C10.3686111,27.7349858 10.0005585,26.371786 10.0005585,24.9798873 C9.98640267,23.7314833 10.2412083,22.4543804 10.7791312,21.3207722 C11.33121,20.1297661 12.1522503,19.0535558 13.1714726,18.2643348 C14.5447182,17.2386131 16.1944213,16.6628331 17.899532,16.6141456 C17.9136879,17.0589793 17.899532,17.5038129 17.9136879,17.9199475 L17.9136879,20.1728145 C17.3616091,19.9862714 16.7529069,19.9862714 16.1866722,20.1154166 C15.5071906,20.2732608 14.8560207,20.5745997 14.3322537,21.0337828 C14.0066687,21.3207722 13.7235514,21.6651595 13.5395252,22.0525952 C13.1997844,22.7126709 13.0865374,23.4731928 13.1573168,24.2050159 C13.2280961,24.9224894 13.5395252,25.611264 13.9925129,26.1421945 C14.2897861,26.5296302 14.7003062,26.8166196 15.0966705,27.0892596 C15.4222554,27.5484427 15.8327755,27.9358784 16.3282308,28.2085183 C16.9794007,28.5529056 17.7155058,28.7107498 18.437455,28.6533519 C19.5699243,28.5816046 20.6457702,27.864131 21.2120048,26.859668 C21.5659015,26.1995924 21.7640836,25.4534199 21.7499277,24.7072474 C21.7923953,18.7809158 21.7782394,12.8832832 21.7782394,7 L21.7782394,7 Z" id="路径" fill="#FFFFFF"></path>
                <path d="M24.7542373,7 C25.1355932,7.01428429 25.5169491,7 25.9124294,7 C25.9124294,8.28558748 26.3079096,9.57117493 27.0423729,10.6282135 C27.141243,10.7567723 27.2259887,10.8710467 27.3248587,10.9853211 C26.4915254,10.4710862 25.8276836,9.68544936 25.3898305,8.79982246 C25.1214689,8.24273456 24.8954802,7.62850945 24.7542373,7 L24.7542373,7 Z M30.7288135,13.085114 C31.1525424,13.1851041 31.5621469,13.2136728 32,13.2136728 L32,17.6846603 C29.838983,17.6989446 27.6779661,16.970445 25.9124294,15.6991419 L25.9124294,24.5554111 C25.9265537,25.2267735 25.8700565,25.8981358 25.7288136,26.5409295 C25.3071228,28.5427459 24.1578977,30.3116005 22.5084746,31.4975835 C21.6327684,32.1260929 20.6581921,32.5689064 19.6271187,32.7974553 C18.3700565,33.0831414 17.0706215,33.0688571 15.8418079,32.740318 C14.3628303,32.354768 13.0274982,31.5405201 12,30.397692 C12.8757062,31.0262014 13.8502825,31.4547306 14.8954802,31.6832794 C15.6299435,31.8546911 16.3926554,31.897544 17.1553673,31.8689754 C18.6525424,31.8261225 20.0932203,31.3261718 21.3079096,30.4262606 C22.240113,29.7406139 22.9887006,28.8407027 23.5819209,27.826517 C24.2457627,26.655204 24.6553673,25.3410479 24.7542373,23.9983232 C24.7683616,23.6412156 24.7683616,23.2698237 24.7542373,22.8841474 C24.740113,20.1272765 24.740113,17.3704056 24.740113,14.6135347 C26.4774011,15.8848378 28.6242938,16.5704845 30.7711864,16.5419159 C30.7288135,15.3991714 30.7429378,14.2421427 30.7288135,13.085114 L30.7288135,13.085114 Z" id="形状" fill="#FE2C55"></path>
                <path d="M17.7276804,17 C18.151787,17 18.5758935,17.0137174 19,17.0685871 L19,21.4718793 C18.392114,21.266118 17.7135435,21.2524006 17.0915206,21.4032922 C15.8898854,21.6639232 14.8861665,22.5418381 14.4761969,23.6666667 C14.0520903,24.7640603 14.2358698,26.0534979 14.956851,27 C14.5327444,26.7668038 14.1651854,26.4650206 13.8541739,26.0946502 C13.4017936,25.5733882 13.0907822,24.914952 13.0200977,24.2427983 C12.9494133,23.5432098 13.0625084,22.8024691 13.4017936,22.1851852 C13.5855731,21.8148148 13.8824477,21.4855967 14.1934592,21.2112483 C14.7306608,20.7722908 15.3950944,20.4979424 16.0453911,20.3333333 C16.6108665,20.2098765 17.2187526,20.2098765 17.770091,20.388203 L17.770091,18.2345679 C17.7276804,17.8367627 17.7559541,17.4115226 17.7276804,17 L17.7276804,17 Z" id="路径" fill="#FE2C55"></path>
            </g>
        </g>
        <g id="编组-16" transform="translate(216.000000, 191.000000)">
            <rect id="矩形" fill="#D8D8D8" opacity="0" x="0" y="0" width="56" height="56"></rect>
            <polygon id="矩形备份-22" fill="#FDEA13" points="24 4 51 4 51 52 3 52"></polygon>
        </g>
        <g id="编组-6" transform="translate(40.000000, 103.000000)">
            <rect id="矩形" fill="#D8D8D8" opacity="0" x="0" y="0" width="56" height="54.0689655"></rect>
            <polygon id="多边形" fill="#73EEED" points="28 1.93103448 54.6295825 20.6114026 44.4579871 50.8368732 11.5420129 50.8368732 1.37041754 20.6114026"></polygon>
        </g>
        <g id="编组-6备份" transform="translate(128.000000, 103.000000)">
            <rect id="矩形" fill="#D8D8D8" opacity="0" x="0" y="0" width="56" height="56"></rect>
            <circle id="椭圆形" fill="#FF8D40" cx="27" cy="28" r="25"></circle>
        </g>
        <g id="编组-18" transform="translate(128.000000, 15.000000)">
            <rect id="矩形" fill="#CADDFF" opacity="0" x="0" y="0" width="56" height="56"></rect>
            <polygon id="三角形" fill="#FE8BA9" points="28 2 54 54 2 54"></polygon>
        </g>
        <g id="编组-11" transform="translate(216.000000, 15.000000)">
            <rect id="矩形备份-32" fill="#D8D8D8" opacity="0" x="0" y="0" width="56" height="56"></rect>
            <polygon id="星形" fill="#4362D4" points="28 42 11.5420129 50.6524758 14.6852088 32.3262379 1.37041754 19.3475242 19.7710065 16.6737621 28 0 36.2289935 16.6737621 54.6295825 19.3475242 41.3147912 32.3262379 44.4579871 50.6524758"></polygon>
        </g>
        <g id="编组-15备份" transform="translate(222.000000, 103.000000)">
            <rect id="矩形" fill="#D8D8D8" opacity="0" x="0" y="0" width="56" height="56"></rect>
            <g id="编组" transform="translate(4.000000, 7.000000)" fill="#FFA4B0" fill-rule="nonzero">
                <path d="M22.1642355,3.94346132 L22.6035048,4.3948721 C22.9989006,4.7963072 23.464922,5.25749583 23.9999637,5.78115406 L24.6083062,5.18198909 C25.0882386,4.70884975 25.4975456,4.29600716 25.836762,3.94346132 C30.7559357,-1.20403392 38.8532574,-1.32842992 43.9233129,3.665879 C44.015781,3.75704342 44.1069263,3.84958082 44.1967192,3.94346132 C49.219691,9.15233974 49.2678448,17.5683532 44.3379702,22.8358987 L23.9999637,43 L3.66142222,22.8375284 C-1.26684721,17.5688964 -1.22029858,9.15233974 3.80267324,3.94346132 C8.72184696,-1.20403392 16.8191686,-1.32842992 21.8892241,3.665879 C21.9816922,3.75704342 22.0728375,3.84958082 22.1626304,3.94346132 L22.1642355,3.94346132 Z" id="路径"></path>
            </g>
        </g>
        <g id="编组" transform="translate(128.000000, 807.000000)">
            <rect id="矩形" fill="#D8D8D8" opacity="0" x="0" y="0" width="56" height="56"></rect>
            <g transform="translate(8.000000, 7.000000)" fill="#FF9907" fill-rule="nonzero" id="形状">
                <path d="M9.48319999,40.506 C10.4484,41.452 11.9684,41.968 14.18,41.968 L14.18,43 C11.41664,43 9.34335998,42.484 7.96320001,41.366 C6.71680002,40.334 6.02672,38.356 6.02672,35.604 L6.02672,27.434 C6.02672,25.886 5.75160001,24.682 5.06,23.736 C4.36839998,22.79 2.8484,22.274 0.5,22.102 L0.5,20.984 C2.7116,20.812 4.09328,20.296 4.9232,19.522 C5.75160001,18.748 6.02672,17.458 6.02672,15.738 L6.02672,7.48199999 C6.02672,4.644 6.71832001,2.75199998 7.96168002,1.63400001 C9.34639999,0.516 11.41664,0 14.18,0 L14.18,1.11800001 C11.9684,1.11800001 10.4484,1.548 9.48319999,2.49400003 C8.51344002,3.354 8.10000001,4.73000001 8.10000001,6.53600001 L8.10000001,15.996 C8.10000001,18.06 7.54672002,19.436 6.30336001,20.21 C5.14724985,20.9510192 3.80404614,21.3392163 2.43496003,21.328 L2.43496003,21.672 C3.95496001,21.672 5.19832003,22.102 6.30336001,23.048 C7.40839999,23.908 7.96168002,25.284 7.96168002,27.09 C7.76104002,31.6249642 7.76104002,34.7793214 7.96168002,36.55 C8.26264002,39.2067857 8.51496001,39.474 9.48168001,40.506 L9.48319999,40.506 Z M29.5168,40.506 C28.5516,41.452 27.0316,41.968 24.82,41.968 L24.82,43 C27.58336,43 29.65664,42.484 31.0368,41.366 C32.2832,40.334 32.97328,38.356 32.97328,35.604 L32.97328,27.434 C32.97328,25.886 33.2484,24.682 33.94,23.736 C34.6316,22.79 36.1516,22.274 38.5,22.102 L38.5,20.984 C36.2884,20.812 34.90672,20.296 34.0768,19.522 C33.2484,18.748 32.97328,17.458 32.97328,15.738 L32.97328,7.48199999 C32.97328,4.644 32.28168,2.75199998 31.03832,1.63400001 C29.6536,0.516 27.58336,0 24.82,0 L24.82,1.11800001 C27.0316,1.11800001 28.5516,1.548 29.5168,2.49400003 C30.48504,3.35400004 30.9,4.73000001 30.9,6.53600001 L30.9,15.996 C30.9,18.06 31.45328,19.436 32.69664,20.21 C33.8527501,20.9510192 35.1959539,21.3392163 36.56504,21.328 L36.56504,21.672 C35.04504,21.672 33.80168,22.102 32.69664,23.048 C31.5916,23.908 31.03832,25.284 31.03832,27.09 C31.23896,31.6249642 31.23896,34.7793214 31.03832,36.55 C30.73736,39.2067857 30.48504,39.474 29.51832,40.506 L29.5168,40.506 Z"></path>
            </g>
        </g>
        <g id="编组备份-16" transform="translate(40.000000, 807.000000)">
            <rect id="矩形" fill="#D8D8D8" opacity="0" x="0" y="0" width="56" height="56"></rect>
            <g id="编组" transform="translate(5.000000, 5.000000)" fill="#6B7CC2" fill-rule="nonzero">
                <polygon id="路径" points="0.77891174 0 13.4655172 0 13.4655172 2.51386622 3.67304364 2.51386622 3.67304364 23 0.775862069 23"></polygon>
                <polygon id="路径备份" transform="translate(39.120690, 34.000000) scale(-1, -1) translate(-39.120690, -34.000000) " points="32.5031823 22 45.7413793 22 45.7413793 24.6231647 35.523146 24.6231647 35.523146 46 32.5 46"></polygon>
            </g>
        </g>
        <g id="编组" transform="translate(40.000000, 279.000000)">
            <g id="编组备份-13" fill="#D8D8D8" opacity="0">
                <rect id="矩形" x="0" y="0" width="56" height="56"></rect>
            </g>
            <g transform="translate(4.000000, 9.000000)" fill="#EBC766" fill-rule="nonzero" id="形状">
                <path d="M4.79945018,0 L43.2005497,0 C45.8229298,0 47.967014,2.07455727 47.9999999,4.62913182 L24.0137441,17.7054636 L0.0219905824,4.64016666 C0.0439811648,2.08007474 2.17157249,0 4.79945018,0 L4.79945018,0 Z M0.0219905824,9.64448436 L0,32.7791085 C0,35.3557527 2.16057723,37.4634146 4.79945023,37.4634146 L43.2005498,37.4634146 C45.8394228,37.4634146 48,35.3557527 48,32.7791085 L48,9.63344947 L24.5745046,22.1028629 C24.2171572,22.2959733 23.7828428,22.2959733 23.4254954,22.1028629 L0.0219905824,9.64448436 L0.0219905824,9.64448436 Z"></path>
            </g>
        </g>
        <g id="编组-8" transform="translate(128.000000, 279.000000)">
            <rect id="矩形备份-32" fill="#D8D8D8" opacity="0" x="0" y="0" width="56" height="56"></rect>
            <g id="编组" transform="translate(4.000000, 4.000000)" fill="#78B2DE" fill-rule="nonzero">
                <path d="M38.3476382,48 C32.7786117,48 23.7145502,42.3935658 14.6916319,33.3682353 C9.02856377,27.7067654 4.55437395,21.8427852 2.09272799,16.8567055 C-0.398038814,11.8113155 -0.675087529,7.93743912 1.31341159,5.9489383 L6.05396358,1.20838227 L6.05396358,1.15575098 C6.11140377,1.11968386 6.18807974,1.06838839 6.26689302,0.992513845 C7.11624271,0.349682353 8.15199355,0.00124282908 9.21718132,0 C10.6978023,0 12.0501848,0.65481869 12.9280846,1.79640999 L18.2478474,8.48726241 C19.8433487,10.4030946 19.7084311,13.0760694 17.9323271,14.8497704 L14.9900537,18.1575265 L15.1348564,18.3942337 C17.1474002,21.68596 19.239826,24.4016809 21.5318231,26.6966187 C23.8310335,28.9934267 26.5467521,31.0866557 29.8339338,33.0965297 L30.0853348,33.2498817 L33.2076765,30.1248657 C34.1235135,29.2092951 35.3174679,28.705424 36.5701983,28.705424 C37.6647678,28.705424 38.6986912,29.085331 39.560294,29.8040019 L46.2388512,35.1117469 L46.565058,35.4400913 C47.4675369,36.2669635 47.9724762,37.3887847 47.9989254,38.6107923 C48.0269776,39.8974536 47.5046726,41.1739627 46.5661267,42.1125094 L41.935379,46.7435282 C41.070303,47.5757437 39.8613875,48 38.3476382,48 Z M43.0606723,22.4559263 C42.2340679,22.4559263 41.7205794,21.9424373 41.7205794,21.1155651 C41.7205794,13.3456377 35.3978842,7.02454012 27.6266276,7.02454012 C26.7997561,7.02454012 26.2862676,6.51105112 26.2862676,5.68417889 C26.2862676,4.85570367 26.7997561,4.34114602 27.6266276,4.34114602 C36.8755664,4.34114602 44.4002313,11.8660841 44.4002313,21.1152979 C44.4007652,21.9424373 43.8872767,22.4559263 43.0606723,22.4559263 Z" id="形状"></path>
                <path d="M35.7919176,21.8181818 C34.990666,21.8181818 34.4929266,21.320466 34.4929266,20.5189934 C34.4823088,16.6628614 31.3368652,13.5180849 27.4821041,13.5074677 C26.6795576,13.5074677 26.1818182,13.0097519 26.1818182,12.2082793 C26.1818182,11.4070656 26.6795576,10.9090909 27.4810682,10.9090909 C32.7643051,10.9243694 37.0761474,15.2357482 37.0909091,20.5200293 C37.0914266,21.320466 36.5936872,21.8181818 35.7919176,21.8181818 L35.7919176,21.8181818 Z" id="路径"></path>
            </g>
        </g>
        <g id="编组备份-9" transform="translate(128.000000, 895.000000)">
            <rect id="矩形" fill="#D8D8D8" opacity="0" x="0" y="0" width="56" height="56"></rect>
            <g id="编组" transform="translate(0.000000, 16.000000)" fill="#054B96" fill-rule="nonzero">
                <path d="M56,20.3961848 L56,3.40363332 L54.8031811,3.40363332 L54.8031811,2.41332296 L56,2.41332296 L56,0 L54.302841,0 L54.302841,1.70186862 L53.6063804,1.70186862 L53.6063804,0 L2.39360132,0 L2.39360132,1.70186862 L1.6971773,1.70186862 L1.6971773,0 L0,0 L0,2.41337491 L1.19676412,2.41337491 L1.19676412,3.40365929 L0,3.40365929 L0,20.3962628 L1.19680066,20.3962628 L1.19680066,21.3865731 L0,21.3865731 L0,23.8 L1.69719557,23.8 L1.69719557,22.0981314 L2.39365613,22.0981314 L2.39365613,23.8 L53.6064352,23.8 L53.6064352,22.0981314 L54.3028592,22.0981314 L54.3028592,23.8 L56,23.8 L56,21.3865731 L54.8032176,21.3865731 L54.8032176,20.3962628 L56,20.3962628 L56,20.3961848 Z M54.8032176,0.711610214 L55.499532,0.711610214 L55.499532,1.70184264 L54.8032176,1.70184264 L54.8032176,0.711610214 L54.8032176,0.711610214 Z M0.500467987,0.711610214 L1.19678239,0.711610214 L1.19678239,1.70184264 L0.500467987,1.70184264 L0.500467987,0.711610214 L0.500467987,0.711610214 Z M1.19678239,23.0883638 L0.500467987,23.0883638 L0.500467987,22.0980534 L1.19678239,22.0980534 L1.19678239,23.0883638 L1.19678239,23.0883638 Z M53.1060403,21.3865471 L53.1060403,23.0883638 L2.89399623,23.0883638 L2.89399623,21.3865471 L1.6971773,21.3865471 L1.6971773,19.6847045 L0.500340102,19.6847045 L0.500340102,4.11500972 L1.6971773,4.11500972 L1.6971773,2.41332296 L2.89397796,2.41332296 L2.89397796,0.711506299 L53.106022,0.711506299 L53.106022,2.41337491 L54.302841,2.41337491 L54.302841,4.11508766 L55.4996416,4.11508766 L55.4996416,19.6847824 L54.3028592,19.6847824 L54.3028592,21.3865991 L53.1060403,21.3865991 L53.1060403,21.3865471 Z M55.499532,23.0883638 L54.8032176,23.0883638 L54.8032176,22.0980534 L55.499532,22.0980534 L55.499532,23.0883638 Z" id="形状"></path>
            </g>
        </g>
        <g id="编组备份-9" transform="translate(216.000000, 895.000000)">
            <mask id="mask-5" fill="white">
                <use xlink:href="#path-4"></use>
            </mask>
            <use id="矩形" fill="#D8D8D8" opacity="0" xlink:href="#path-4"></use>
            <g id="编组-20" mask="url(#mask-5)" fill="#3DCD88">
                <g transform="translate(4.504809, 6.419873)">
                    <rect id="矩形" transform="translate(15.000000, 23.160254) rotate(-330.000000) translate(-15.000000, -23.160254) " x="12" y="0.160254038" width="6" height="46"></rect>
                    <rect id="矩形备份-33" transform="translate(32.990381, 22.000000) rotate(-330.000000) translate(-32.990381, -22.000000) " x="29.9903811" y="-1" width="6" height="46"></rect>
                </g>
            </g>
        </g>
        <g id="编组备份-17" transform="translate(40.000000, 895.000000)">
            <rect id="矩形" fill="#D8D8D8" opacity="0" x="0" y="0" width="56" height="56"></rect>
            <path d="M51.4466667,15 L4.22,15 C2.47583334,15 1,16.4871195 1,18.2446244 L1,34.1973609 C1,35.9548658 2.47583334,37.4419853 4.22,37.4419853 L23.9425,37.4419853 L27.8333333,41.3625731 L31.7241667,37.4419853 L51.4466667,37.4419853 C53.1908333,37.4419853 54.6666667,35.9548658 54.6666667,34.1973609 L54.6666667,18.2446244 C54.6666667,16.4871195 53.1908334,15 51.4466667,15 Z" id="路径" stroke="#B620E0" stroke-width="2" fill-rule="nonzero"></path>
        </g>
        <g id="编组" transform="translate(40.000000, 455.000000)">
            <g id="编组备份-2" fill="#D8D8D8" opacity="0">
                <rect id="矩形" x="0" y="0" width="56" height="56"></rect>
            </g>
            <g transform="translate(8.000000, 7.000000)" fill="#66BEE1" fill-rule="nonzero" id="路径">
                <path d="M38.4995827,21.9624385 C42.8778073,15.6476813 41.3575219,6.94557696 35.1036205,2.52474848 C28.8497191,-1.89608 20.2314778,-0.361000886 15.8532532,5.95375637 C15.8433812,5.96372442 15.8384452,5.97867649 15.8285732,5.98864453 L1.83010103,26.173938 C-1.37335753,30.7941275 -0.262759419,37.168693 4.31290481,40.403324 C8.88856904,43.637955 15.2017023,42.5165498 18.4051609,37.8963604 L32.4036331,17.7110668 C32.4135051,17.7010988 32.4184411,17.6861467 32.4283131,17.6761787 C34.4619416,14.7455731 33.7560948,10.7035304 30.8537317,8.65011286 C27.9563047,6.59669535 23.9581514,7.30941065 21.9245229,10.2400162 C21.9146509,10.2499843 21.9097149,10.2649363 21.8998429,10.2749044 L9.88070335,27.6043527 L11.9044599,29.0347673 L22.5069699,13.7487685 L22.5217779,13.7587365 L23.9334715,11.695351 C23.9384075,11.6853829 23.9482795,11.6754149 23.9532154,11.6654468 C25.2020213,9.87119852 27.6650811,9.43758851 29.4469741,10.6985464 C31.2288671,11.9595042 31.6632344,14.4415477 30.4243005,16.24078 C30.4144285,16.2507481 30.4094925,16.2607161 30.3996205,16.2706842 L28.9632469,18.3141336 L28.9780549,18.3241017 L16.3912763,36.4659457 C15.2214463,38.1555296 13.4642333,39.2869028 11.4503487,39.6407684 C9.43646411,39.9996181 7.40777155,39.546072 5.73447039,38.3598745 C4.06116924,37.178661 2.94069914,35.4043488 2.59024373,33.3708674 C2.23485234,31.337386 2.68402758,29.2889525 3.85879358,27.5993687 L16.4406362,9.45254058 L16.4505082,9.4575246 L17.8622018,7.40410709 C17.8720738,7.38915502 17.8819458,7.37918697 17.8918177,7.3642349 C18.7704243,6.10327706 19.8662144,5.04666417 21.1495722,4.23925243 C22.3934421,3.45177678 23.7607118,2.92347033 25.2118933,2.66430113 C26.6630748,2.40513193 28.1290644,2.43005204 29.5654379,2.73906148 C31.0511714,3.05803895 32.438185,3.67107379 33.6968629,4.56321393 C34.9555408,5.45037004 35.997035,6.56180719 36.8065376,7.85765319 C37.5864243,9.11362701 38.1096394,10.4942014 38.366311,11.9595042 C38.6229825,13.424807 38.5983026,14.9050618 38.2922711,16.3554126 C37.9763676,17.8506195 37.3692407,19.25113 36.4955701,20.5120878 C36.4856982,20.5270399 36.4758262,20.5370079 36.4659542,20.55196 L35.0394526,22.5954095 L35.0443886,22.6003935 L21.889971,41.5695854 L23.9137275,43 L38.4749028,21.9973267 C38.4847748,21.9823746 38.4946468,21.9724066 38.4995827,21.9624385 Z"></path>
            </g>
        </g>
        <g id="编组备份-14" transform="translate(128.000000, 455.000000)">
            <rect id="矩形" fill="#D8D8D8" opacity="0" x="0" y="0" width="56" height="56"></rect>
            <g id="编组" transform="translate(7.000000, 7.000000)" fill="#8E8FC6" fill-rule="nonzero">
                <path d="M41.5843196,12.5773975 C41.4741633,12.4697538 30.8991567,2.14621348 29.8657856,1.15691689 C29.8290668,1.12103567 29.7975935,1.09028033 29.7556293,1.05952499 C27.835762,-0.467989904 25.071363,-0.32959091 23.3245985,1.38245599 C21.8453565,2.82283078 21.9292851,4.75529091 21.9817405,6.01113373 C21.986986,6.33406473 21.9974771,6.66724752 21.9974771,6.97480085 C21.9974771,8.31265787 20.7070746,10.2502439 18.7137697,11.9110319 C16.6312908,13.6487082 14.2340794,14.7097672 12.8754849,14.4944799 C12.555507,14.443221 12.2617568,14.4175916 11.9994799,14.397088 C11.873587,14.3868362 11.7634306,14.3765845 11.6532743,14.3663327 C5.24322571,12.8131883 2.35817926,16.9241513 2.02246478,17.4418661 C1.53462967,18.2722601 1.66576812,19.3179414 2.35293373,19.984307 L9.36097376,26.8324946 L0.42191971,38.6579204 C-0.212790519,39.4883144 -0.123616321,40.6313877 0.63698679,41.3797674 C1.0566299,41.7898385 1.60216597,42 2.147702,42 C2.58832725,42 3.02895255,41.8667269 3.40138584,41.5899289 L15.6287372,32.9579319 L22.5528485,39.7241053 C23.2505052,40.4058485 24.3310863,40.5339958 25.1966002,40.0214069 C25.6791898,39.7241053 29.8756209,36.9253699 28.328187,30.7896809 C28.3124503,30.6871631 28.2232762,29.9439092 28.1760663,29.5235863 C28.06591,28.2113587 29.3772947,25.2844762 31.5069836,23.0188333 C33.0176988,21.41443 34.5651328,20.5276512 35.8607809,20.5276512 C36.1755132,20.5276512 36.5164733,20.5327771 36.8259601,20.5430289 C38.1373448,20.5994136 40.1201585,20.6814279 41.594155,19.2410531 C42.5016332,18.3542743 43.0052049,17.1753198 43,15.9143512 C42.9953696,14.6533825 42.4963877,13.4693022 41.5843196,12.5773975 Z" id="路径"></path>
            </g>
        </g>
        <g id="编组备份-11" transform="translate(216.000000, 455.000000)">
            <rect id="矩形" fill="#D8D8D8" opacity="0" x="0" y="0" width="56" height="56"></rect>
            <g id="编组" transform="translate(1.166667, 15.166667)" fill="#FFD5C0" fill-rule="nonzero">
                <path d="M50.4466667,0 L3.22,0 C1.47583334,0 0,1.48711951 0,3.24462438 L0,19.1973609 C0,20.9548658 1.47583334,22.4419853 3.22,22.4419853 L22.9425,22.4419853 L26.8333333,26.3625731 L30.7241667,22.4419853 L50.4466667,22.4419853 C52.1908333,22.4419853 53.6666667,20.9548658 53.6666667,19.1973609 L53.6666667,3.24462438 C53.6666667,1.48711951 52.1908334,0 50.4466667,0 Z" id="路径"></path>
            </g>
        </g>
    </g>
</svg>