<svg xmlns="http://www.w3.org/2000/svg" xmlns:xlink="http://www.w3.org/1999/xlink" preserveAspectRatio="xMidYMid" width="2539" height="4547" viewBox="0 0 2539 4547">
  <defs>
    <style>
      .cls-1 {
        fill: #fff;
        fill-rule: evenodd;
      }
    </style>
  </defs>
  <path d="M950.000,1554.000 C950.000,1554.000 979.665,1605.039 933.000,1658.000 C892.230,1688.222 870.196,1696.433 793.000,1802.000 C715.804,1907.567 641.198,2037.929 626.000,2122.000 C610.802,2206.071 584.707,2242.503 518.000,2687.000 C444.305,3134.991 395.270,3418.275 409.000,3404.000 C415.447,3404.256 432.070,3393.507 418.000,3418.000 C418.000,3416.608 412.786,3430.678 476.000,3444.000 C532.847,3461.802 568.999,3467.059 592.000,3476.000 C653.910,3498.617 693.392,3480.239 672.000,3509.000 C650.608,3545.542 649.243,3554.991 657.000,3564.000 C664.757,3573.009 677.249,3608.747 723.000,3619.000 C768.751,3629.253 768.611,3632.608 780.000,3636.000 C811.197,3637.741 823.640,3632.241 841.000,3639.000 C899.391,3649.060 973.510,3651.460 986.000,3653.000 C1000.848,3662.793 1073.294,3656.823 1101.000,3658.000 C1121.436,3660.356 1122.936,3663.976 1126.000,3671.000 C1136.335,3678.810 1151.099,3684.897 1185.000,3691.000 C1223.617,3700.836 1294.945,3705.823 1320.000,3705.000 C1419.726,3710.858 1499.447,3701.972 1515.000,3696.000 C1545.290,3692.583 1518.274,3699.718 1542.000,3699.000 C1560.028,3698.478 1572.682,3692.111 1620.000,3695.000 C1659.458,3693.762 1696.278,3694.780 1721.000,3687.000 C1741.006,3683.347 1751.340,3676.480 1808.000,3669.000 C1864.660,3661.520 1869.396,3652.975 1869.000,3664.000 C1869.793,3675.976 1931.922,3663.193 1938.000,3662.000 C1944.078,3660.807 2035.899,3639.588 2053.000,3620.000 C2058.925,3615.629 2057.962,3601.342 2069.000,3616.000 C2078.136,3623.287 2106.481,3605.813 2128.000,3598.000 C2148.805,3590.663 2175.174,3575.424 2202.000,3565.000 C2219.790,3560.045 2218.897,3555.970 2215.000,3543.000 C2208.250,3535.974 2163.726,3380.511 2159.000,3373.000 C2145.898,3336.871 2127.969,3290.970 2116.000,3279.000 C2109.822,3263.941 2088.201,3219.539 2080.000,3209.000 C2068.887,3185.070 1992.955,3044.656 1982.000,3023.000 C1927.738,2930.555 1798.340,2607.732 1754.000,2513.000 C1709.660,2418.268 1615.389,2175.293 1597.000,2149.000 C1578.611,2122.707 1485.739,1887.798 1478.000,1836.000 C1473.179,1802.128 1481.899,1831.874 1474.000,1754.000 C1468.186,1658.617 1421.158,1581.345 1404.000,1564.000 C1387.293,1525.458 1257.048,1418.855 1206.000,1406.000 C1150.893,1398.106 1159.616,1405.831 1084.000,1450.000 C1012.894,1498.679 967.000,1539.000 967.000,1539.000 C967.000,1539.000 950.000,1556.706 950.000,1554.000 Z" class="cls-1"/>
</svg>
